<svg xmlns="http://www.w3.org/2000/svg" width="466px" height="466px" viewBox="0 0 466.13502199999994 466.13502199999994" version="1.1" id="svg5" xml:space="preserve" data-square-offset-x="68.93546099999998" data-square-offset-y="69.34969099999998"><defs id="defs2" style="fill: rgb(0, 199, 252);"/><g id="layer1" style="fill: rgb(0, 199, 252);"><path style="fill: rgb(0, 199, 252);" d="m 229.5173610000001 396.4846910000002 c -2.626,-0.979 -4.968,-3.376 -6.039,-6.179 -0.83,-2.174 -0.482,-6.717 1.05,-13.698 0.682,-3.104 1.482,-7.292 1.78,-9.307 0.297,-2.015 0.609,-3.732 0.693,-3.816 0.08,-0.09 0.992,0.09 2.016,0.399 1.025,0.305 2.758,0.554 3.852,0.554 1.093,0 2.826,-0.249 3.851,-0.554 1.024,-0.304 1.912,-0.502 1.972,-0.441 0.06,0.06 0.368,1.621 0.685,3.464 0.316,1.843 1.054,5.495 1.638,8.114 0.585,2.619 1.29,5.794 1.568,7.055 1.831,8.327 -2.022,14.4 -9.321,14.695 -1.478,0.06 -3.163,-0.07 -3.745,-0.286 z m -0.554,-38.309 c -1.406,-0.713 -2.231,-1.451 -3.105,-2.779 l -1.189,-1.809 -3.75,-0.412 c -22.443,-2.469 -41.966,-10.189 -59.593,-23.564 -3.56,-2.702 -10.475,-8.749 -12.032,-10.522 -0.931,-1.061 -1.283,-1.219 -2.704,-1.219 -4.401,0 -8.344,-4.752 -7.818,-9.421 0.175,-1.551 0.08,-1.796 -1.395,-3.717 -7.609,-9.888 -14.603,-24.336 -18.415,-38.04 -2.164,-7.779 -4.273,-20.214 -4.274,-25.196 0,-1.263 -0.193,-1.58 -1.806,-2.969 -4.8,-4.133 -4.035,-10.294 1.737,-13.996 0.06,-0.04 0.42,-2.497 0.801,-5.464 2.717,-21.176 11.454,-43.181 23.002,-57.938 l 1.05,-1.342 -0.618,-1.371 c -1.43,-3.172 -0.07,-7.363 3.064,-9.435 1.336,-0.884 1.775,-0.975 4.765,-0.99 l 3.294,-0.02 2.023,-1.963 c 16.942,-16.444 42.612,-28.238 67.9,-31.196 4.846,-0.567 5.238,-0.669 5.781,-1.497 3.434,-5.242 12.065,-5.256 14.787,-0.02 0.435,0.835 0.724,0.936 3.253,1.131 24.728,1.907 51.444,13.859 70.202,31.408 2.482,2.322 3.014,2.672 3.593,2.362 2.413,-1.291 6.818,0.411 8.821,3.41 1.059,1.586 1.122,1.854 0.984,4.164 -0.08,1.359 -0.251,2.708 -0.376,2.999 -0.145,0.337 0.808,2.002 2.626,4.586 11.625,16.526 19.087,36.136 21.343,56.092 0.378,3.34 0.74,5.209 1.044,5.387 5.255,3.068 5.82,10.716 1.04,14.085 l -1.47,1.036 -0.439,5.18 c -1.765,20.865 -10.432,44.247 -22.189,59.863 -1.696,2.251 -1.84,2.594 -1.84,4.372 0,4.361 -3.93,8.502 -8.071,8.502 -1.14,0 -1.562,0.207 -2.337,1.146 -1.563,1.893 -7.145,6.821 -11.464,10.12 -17.974,13.731 -38.902,21.934 -61.788,24.22 -1.93,0.193 -2.406,0.369 -2.691,0.993 -1.91,4.193 -7.455,5.999 -11.746,3.826 z m -4.411,-26.988 c 0.133,-1.212 0.619,-4.586 1.08,-7.496 2.875,-18.141 2.651,-29.358 -0.869,-43.594 -0.588,-2.377 -1.027,-4.365 -0.975,-4.417 0.05,-0.05 1.601,0.131 3.441,0.407 4.225,0.635 8.203,0.626 11.813,-0.03 1.552,-0.28 2.914,-0.513 3.027,-0.516 0.112,0 -0.242,1.697 -0.787,3.781 -3.531,13.493 -3.68,24.908 -0.583,44.63 l 1.482,9.437 h 0.9 c 1.221,0 8.324,-1.215 12.397,-2.117 10.167,-2.251 23.375,-7.983 32.452,-14.085 5.243,-3.524 11.437,-8.462 11.437,-9.118 0,-0.917 -14.118,-17.233 -18.383,-21.245 -5.692,-5.354 -15.362,-12.323 -21.697,-15.637 l -2.995,-1.566 2.438,-1.893 c 2.792,-2.169 6.03,-5.563 8.118,-8.508 1.631,-2.302 1.657,-2.316 2.324,-1.235 1.526,2.469 7.154,9.176 11.14,13.275 7.08,7.278 11.855,11.025 23.818,18.687 3.395,2.175 6.519,4.199 6.941,4.498 0.745,0.529 0.827,0.455 2.859,-2.568 9.457,-14.074 15.085,-29.095 17.158,-45.798 0.265,-2.135 0.38,-3.978 0.256,-4.096 -0.125,-0.118 -2.132,-0.471 -4.46,-0.783 -2.328,-0.312 -6.932,-0.978 -10.231,-1.479 -13.39,-2.033 -26.704,-1.38 -39.321,1.931 -1.448,0.38 -2.687,0.636 -2.753,0.57 -0.07,-0.07 0.06,-1.839 0.29,-3.939 0.443,-4.114 0.246,-8.126 -0.578,-11.747 -0.283,-1.241 -0.457,-2.314 -0.388,-2.383 0.07,-0.07 1.978,0.358 4.241,0.95 8.672,2.268 19.956,3.252 28.632,2.498 3.936,-0.342 24.063,-3.474 24.49,-3.81 0.25,-0.197 -0.684,-6.759 -1.551,-10.894 -2.687,-12.822 -8.233,-25.874 -15.759,-37.084 l -1.7,-2.533 -7.275,4.555 c -17.444,10.924 -26.395,18.838 -35.16,31.089 l -1.938,2.709 -2.25,-2.86 c -2.231,-2.836 -6.094,-6.413 -9.019,-8.35 l -1.521,-1.008 3.264,-1.85 c 4.179,-2.37 12.631,-8.097 16.492,-11.174 4.929,-3.93 18.322,-17.81 24.308,-25.192 l 0.848,-1.046 -1.024,-1.084 c -4.595,-4.862 -18.834,-13.638 -28.718,-17.702 -7.844,-3.225 -22.454,-6.943 -27.282,-6.943 -0.816,0 -1.442,3.185 -3.468,17.639 -1.779,12.698 -1.12,26.25 1.852,38.078 0.557,2.22 0.967,4.082 0.91,4.14 -0.06,0.06 -0.65,-0.07 -1.316,-0.275 -2.111,-0.659 -11.454,-0.789 -14.44,-0.2 -1.456,0.286 -2.678,0.492 -2.717,0.456 -0.04,-0.04 0.319,-1.568 0.794,-3.405 2.384,-9.209 3.551,-19.353 3.146,-27.328 -0.201,-3.967 -1.403,-15.234 -1.75,-16.405 -0.09,-0.291 -0.481,-2.751 -0.877,-5.468 -1.164,-7.974 -0.931,-7.232 -2.272,-7.232 -1.948,0 -9.613,1.399 -14.498,2.646 -13.241,3.38 -27.294,10.546 -38.702,19.735 l -3.783,3.047 4.8,5.542 c 2.641,3.049 6.486,7.433 8.546,9.742 7.78,8.725 17.314,16.281 27.873,22.094 2.187,1.204 3.843,2.294 3.682,2.424 -0.162,0.129 -1.236,0.864 -2.389,1.634 -2.554,1.706 -6.988,6.085 -8.664,8.556 -1.166,1.719 -1.764,2.236 -1.764,1.524 0,-0.173 -1.451,-2.258 -3.225,-4.633 -5.518,-7.389 -13.798,-15.437 -21.999,-21.383 -4.875,-3.534 -17.756,-11.769 -18.409,-11.769 -0.499,0 -5.753,8.114 -7.993,12.347 -5.387,10.174 -9.185,21.664 -10.794,32.656 -0.392,2.679 -0.66,4.923 -0.595,4.988 0.07,0.07 2.562,0.508 5.549,0.985 2.987,0.476 7.177,1.175 9.311,1.553 14.226,2.522 26.097,2.212 38.927,-1.015 4,-1.006 4.002,-1.006 3.781,-0.243 -1.168,4.035 -1.562,10.54 -0.912,15.038 0.181,1.254 0.279,2.329 0.219,2.39 -0.06,0.06 -2.316,-0.443 -5.011,-1.118 -9.286,-2.327 -20.896,-3.24 -29.948,-2.353 -4.382,0.429 -21.774,2.843 -22,3.053 -0.27,0.252 0.741,7.62 1.716,12.505 2.441,12.227 7.889,25.287 15.013,35.988 3.231,4.854 2.637,4.718 7.282,1.666 2.192,-1.441 6.524,-4.271 9.625,-6.29 11.679,-7.604 20.027,-15.535 27.351,-25.984 0.85,-1.213 1.642,-2.205 1.76,-2.205 0.119,0 1,1.07 1.959,2.378 2.243,3.058 5.394,6.253 8.187,8.3 l 2.21,1.619 -2.066,1.05 c -11.301,5.742 -21.712,14.46 -32.294,27.041 -2.936,3.49 -6.107,7.173 -7.048,8.185 -0.941,1.012 -1.655,1.996 -1.588,2.186 0.169,0.474 6.17,5.311 9.632,7.764 12.009,8.51 26.734,14.456 41.115,16.603 6.971,1.041 6.567,1.128 6.853,-1.484 z m 3.554,-60.82 c -21.915,-3.463 -35.707,-25.086 -29.213,-45.798 3.736,-11.914 13.062,-20.851 25.152,-24.101 4.607,-1.239 13.483,-1.316 17.705,-0.155 24.845,6.835 35.009,34.07 20.634,55.292 -4.313,6.366 -12.236,11.753 -20.56,13.976 -2.742,0.733 -11.044,1.208 -13.718,0.786 z m 10.202,-15.881 c 6.836,-1.7 12.871,-7.792 14.479,-14.616 3.888,-16.495 -13.436,-30.441 -28.419,-22.877 -12.02,6.067 -14.976,21.523 -6.01,31.43 5.252,5.803 12.336,7.956 19.95,6.063 z m -124.931,86.297 c -6.936,-2.748 -8.751,-11.259 -3.528,-16.541 1.954,-1.976 3.307,-2.708 9.425,-5.102 2.814,-1.101 7.153,-3.005 9.644,-4.231 3.786,-1.862 4.563,-2.135 4.736,-1.662 0.547,1.49 3.092,5.053 4.653,6.513 l 1.74,1.628 -3.013,3.092 c -1.658,1.7 -4.878,5.234 -7.157,7.854 -2.278,2.619 -4.815,5.369 -5.637,6.11 -3.078,2.776 -7.409,3.708 -10.863,2.339 z m 231.472,0 c -2.418,-0.93 -4.067,-2.416 -8.787,-7.918 -2.203,-2.568 -5.487,-6.167 -7.297,-7.998 l -3.292,-3.33 2.472,-2.449 c 1.588,-1.574 2.846,-3.219 3.516,-4.601 l 1.044,-2.152 1.775,1.135 c 2.72,1.738 7.618,4.111 12.999,6.299 8.493,3.453 11.282,6.3 11.282,11.517 0,7.059 -7.16,12.018 -13.712,9.497 z m -267.773,-99.092 c -8.044,-1.92 -10.846,-11.026 -5.117,-16.629 3.759,-3.677 6.345,-3.916 17.043,-1.579 6.344,1.386 8.684,1.789 14.673,2.528 l 1.511,0.186 -0.276,1.3 c -0.349,1.643 -0.358,6.84 -0.01,8.746 l 0.26,1.449 -2.906,0.242 c -2.751,0.229 -7.793,1.154 -17.371,3.187 -4.329,0.92 -5.867,1.032 -7.802,0.57 z m 305.37,-0.149 c -5.262,-1.27 -16.373,-3.376 -18.902,-3.581 l -2.85,-0.232 0.469,-1.809 c 0.708,-2.729 0.514,-7.074 -0.426,-9.505 -0.212,-0.549 0.02,-0.617 2.069,-0.617 2.551,0 9.707,-1.238 16.415,-2.84 7.495,-1.789 11.663,-1.264 14.833,1.869 7.89,7.798 -0.213,19.467 -11.608,16.715 z m -250.369,-90.727 c -1.993,-1.571 -7.518,-4.689 -13.717,-7.741 -6.661,-3.28 -8.96,-5.012 -10.364,-7.809 -3.542,-7.053 2.011,-15.213 9.867,-14.501 3.728,0.338 6.62,2.479 10.332,7.647 4.081,5.681 9.694,12.756 11.386,14.351 l 0.795,0.749 -1.485,1.046 c -1.738,1.225 -3.703,3.542 -4.8,5.658 -0.427,0.825 -0.801,1.498 -0.83,1.496 -0.03,0 -0.561,-0.406 -1.184,-0.896 z m 199.858,-0.247 c -0.877,-1.836 -3.616,-4.952 -5.189,-5.904 -0.797,-0.482 -1.45,-0.967 -1.45,-1.077 0,-0.11 1.193,-1.588 2.651,-3.285 1.458,-1.697 4.575,-5.658 6.926,-8.801 7.151,-9.558 8.55,-10.644 13.707,-10.645 9.228,0 13.632,10.585 7.112,17.097 -1.657,1.656 -3.107,2.554 -8.523,5.283 -6.624,3.338 -12.283,6.584 -13.605,7.806 -0.952,0.879 -0.988,0.869 -1.629,-0.474 z m -105.041,-48.745 c -0.246,-1.761 -0.997,-5.821 -1.67,-9.022 -2.122,-10.097 -2.32,-11.372 -2.147,-13.809 0.419,-5.892 4.365,-9.643 10.144,-9.643 4.283,0 7.182,1.805 9.116,5.673 1.544,3.087 1.413,4.873 -1.326,18.077 -0.779,3.754 -1.523,8 -1.653,9.437 -0.13,1.436 -0.274,2.612 -0.32,2.612 -0.05,0 -0.778,-0.258 -1.627,-0.573 -2.001,-0.742 -6.706,-0.785 -8.629,-0.08 l -1.44,0.529 z" id="path145"/></g></svg>