<?xml version="1.0" encoding="UTF-8"?>
<svg id="Layer_1" data-name="Layer 1" xmlns="http://www.w3.org/2000/svg" xmlns:xlink="http://www.w3.org/1999/xlink" viewBox="0 0 385.12 612.22">
  <defs>
    <style>
      .cls-1 {
        fill: #e5ad27;
      }

      .cls-2 {
        fill: #ebba34;
      }

      .cls-3 {
        fill: #f0c84d;
      }

      .cls-4 {
        fill: #f2ca51;
      }

      .cls-5 {
        fill: #f1c94e;
      }

      .cls-6 {
        fill: #edbe3a;
      }

      .cls-7 {
        fill: #f6da64;
      }

      .cls-8 {
        fill: #f3ce55;
      }

      .cls-9 {
        fill: #e7ad22;
      }

      .cls-10 {
        fill: #f9e98b;
      }

      .cls-11 {
        fill: #f4d35b;
      }

      .cls-12 {
        fill: #e7b129;
      }

      .cls-13 {
        fill: #f3ce56;
      }

      .cls-14 {
        fill: #e4ad27;
      }

      .cls-15 {
        fill: #e9ab22;
      }

      .cls-16 {
        fill: #f9e888;
      }

      .cls-17 {
        fill: #fae789;
      }

      .cls-18 {
        fill: #231f20;
      }

      .cls-19 {
        fill: #eec443;
      }

      .cls-20 {
        fill: #f9e379;
      }

      .cls-21 {
        fill: #f3cf54;
      }

      .cls-22 {
        fill: #f4d45f;
      }

      .cls-23 {
        fill: #fac424;
      }

      .cls-24 {
        fill: #e4ac30;
      }

      .cls-25 {
        fill: #e5b02a;
      }

      .cls-26 {
        fill: #e8b42d;
      }

      .cls-27 {
        fill: #efc43e;
      }

      .cls-28 {
        fill: url(#linear-gradient);
      }

      .cls-29 {
        fill: #fcf4d4;
      }

      .cls-30 {
        fill: #f9e8a0;
      }

      .cls-31 {
        fill: #f8de7d;
      }

      .cls-32 {
        fill: #f0c648;
      }

      .cls-33 {
        fill: #fbe16d;
      }

      .cls-34 {
        fill: #f0c44c;
      }

      .cls-35 {
        fill: #edc03a;
      }

      .cls-36 {
        fill: #edc03b;
      }

      .cls-37 {
        fill: #edbc37;
      }

      .cls-38 {
        fill: #f5d662;
      }

      .cls-39 {
        fill: #f2d15c;
      }

      .cls-40 {
        fill: #edc037;
      }

      .cls-41 {
        fill: #faf3e6;
      }

      .cls-42 {
        fill: #f3cb4f;
      }

      .cls-43 {
        fill: #fcf3c7;
      }

      .cls-44 {
        fill: #f7df75;
      }

      .cls-45 {
        fill: #fbf6da;
      }

      .cls-46 {
        fill: #f1c94c;
      }

      .cls-47 {
        fill: #f3d256;
      }

      .cls-48 {
        fill: #edc145;
      }

      .cls-49 {
        fill: #f2cd53;
      }

      .cls-50 {
        fill: #fff;
      }

      .cls-51 {
        fill: #fffbf8;
      }

      .cls-52 {
        fill: #f1cd55;
      }

      .cls-53 {
        fill: #f3cd59;
      }

      .cls-54 {
        fill: #e1a625;
      }

      .cls-55 {
        fill: #f6da6c;
      }

      .cls-56 {
        fill: #e7b42c;
      }

      .cls-57 {
        fill: #f6ebcd;
      }

      .cls-58 {
        fill: #f7db6a;
      }

      .cls-59 {
        fill: #faefc8;
      }

      .cls-60 {
        fill: #fbe16f;
      }

      .cls-61 {
        fill: #e5ad26;
      }

      .cls-62 {
        fill: #edc03e;
      }

      .cls-63 {
        fill: #fadb5c;
      }

      .cls-64 {
        fill: #edc040;
      }

      .cls-65 {
        fill: #fefaf4;
      }

      .cls-66 {
        fill: #e6b32c;
      }

      .cls-67 {
        fill: #fcf5d8;
      }

      .cls-68 {
        fill: #f9f1e0;
      }

      .cls-69 {
        fill: #f3cf55;
      }

      .cls-70 {
        fill: #f7e076;
      }

      .cls-71 {
        fill: #f3ce54;
      }

      .cls-72 {
        fill: #faf4e5;
      }

      .cls-73 {
        fill: #f8e179;
      }

      .cls-74 {
        fill: #ecbc36;
      }

      .cls-75 {
        fill: #e9b730;
      }

      .cls-76 {
        fill: #e6b031;
      }

      .cls-77 {
        fill: #ebbc37;
      }

      .cls-78 {
        fill: #e8b42e;
      }

      .cls-79 {
        fill: #f2cc51;
      }

      .cls-80 {
        fill: #e8b436;
      }

      .cls-81 {
        fill: #f9e388;
      }

      .cls-82 {
        fill: #fadf7c;
      }

      .cls-83 {
        fill: #fdf6d7;
      }

      .cls-84 {
        fill: #f4d667;
      }

      .cls-85 {
        fill: #f8e585;
      }

      .cls-86 {
        fill: #f8f2e4;
      }

      .cls-87 {
        fill: #fbf3cc;
      }

      .cls-88 {
        fill: #fcf0a5;
      }

      .cls-89 {
        fill: #fbf7e5;
      }

      .cls-90 {
        fill: #fdfcf7;
      }

      .cls-91 {
        fill: #f7e079;
      }
    </style>
    <linearGradient id="linear-gradient" x1="101.98" y1="312.84" x2="170.18" y2="474.97" gradientUnits="userSpaceOnUse">
      <stop offset="0" stop-color="#f4e6ca"/>
      <stop offset="1" stop-color="#fffefb"/>
    </linearGradient>
  </defs>
  <g id="Generative_Object" data-name="Generative Object">
    <g>
      <path class="cls-86" d="M329.49,251.18c.17.43.52.8,1.01.77-.65,1.99-2.29,3.43-3.24,5.06,1.21.78,1.03,2.44.46,3.08-1.6.8-3.58.76-5,2.51,1.62,2.4,3.82,4.31,6.22,5.53,0,.67-1.3,2.29-.55,3.16,4.05,4.69,5.48,10.16,8.16,15.56l2.22,4.46,4.77,18.19c-.44-1.67,1.8,13.33,1.79,12.21l.12,9.28c.04,3.2.33,5.72.19,8.78l-.42,9.45-1.55,8.79c-2.53,14.36-9.12,31.24-19.26,43.73-1.11,1.37-2.51,2.45-3.47,3.82,6.25-10.26,11.68-20.78,14.95-32.7,3.88-14.13,5.77-28.18,5.06-42.54-1.2-24.32-9.22-47.63-21.93-68.35.76-.39,2.02,1.05,2.51.29.33-.52.83-2.08.24-2.27-1.8-.58-.64-1.95-.88-2.53-2.21-5.35-1.59-11.78,2.25-14.34-.4,1.46-1.11,2.55-2.04,4.37-1.34,2.64-1.36,9.47,1.98,9.65,2.9.16,6.13-3.63,6.4-5.98Z"/>
      <path class="cls-23" d="M328.06,506.91l56.79,103.58c.34.62.37,1.05-.05,1.51-.2.22-.58.33-.8,0-.14-.22-.59-.38-.84-.85l-35.94-66.59c-.16-.29-.12-.84-.63-.67.22-.3.07-.39-.04-.67-.14-.38-.21-1.08-.75-.79l-18.13-33.42c-.1-.4.39-.84-.32-1.3-.67-.43-.07-.93.7-.8Z"/>
      <path class="cls-82" d="M347.14,1.44c-6.39.87-9.87.41-15.98.89l-37.58,2.96c.34-.42-.27-.76-.11-1.19C311.06,1.89,328.9,1.22,347.09,0c.75-.05.85.76.74,1.09-.08.24-.41.31-.69.35Z"/>
      <path class="cls-50" d="M300.14,458.63c-3.38-4.24-6.43-9.07-8.72-14.03,3.17-.48,8.17,11.56,8.72,14.03Z"/>
      <path class="cls-68" d="M299.47,424.39c-.52,1.08-1.93,2.77-3.36,2.69.63-1.5,1.93-2.39,3.36-2.69Z"/>
      <path class="cls-50" d="M287.23,437.87c-.17-.31-1.18-.6-1.09-1.05.12-.59.91-.93,1.25-1.12-.04.72.14,1.49-.16,2.17Z"/>
      <path class="cls-86" d="M318.83,407.61c.33-.91,1.39-1.59,2.13-2.01-.52.74-1.04,1.93-2.13,2.01Z"/>
      <path class="cls-86" d="M311.55,416.33c.74-1.39,2.09-2.52,3.34-3.43-.57,1.37-2.04,2.73-3.34,3.43Z"/>
      <path class="cls-86" d="M310.21,417.68c.4-.66.64-.96,1.34-1.34-.2.38.31,1.14-.33,1.35-.29.1-.79-.15-1.01,0Z"/>
      <path class="cls-86" d="M306.17,421.76c.99-1.59,2.46-3.07,4.05-4.08-.96,1.57-2.61,2.94-4.05,4.08Z"/>
      <path class="cls-86" d="M316.13,410.97c.76-.97,1.57-2.05,2.64-2.69-.26,1.18-1.53,2.27-2.64,2.69Z"/>
      <path class="cls-68" d="M294.1,429.19c.21-.69,1.13-2.17,2.01-2.12-.38.9-1.15,1.63-2.01,2.12Z"/>
      <path class="cls-68" d="M155.31,63.21c-.17-.38-.11-1.01.5-.72-.08.33,0,.82-.5.72Z"/>
      <path class="cls-68" d="M292.08,430.55c-.03-.6.68-1.57,1.35-1.31-.12.64-.83,1.01-1.35,1.31Z"/>
      <path class="cls-68" d="M156.59,59.24c.1-.44-.04-.98.6-.75-.11.31-.01,1.03-.6.75Z"/>
      <g>
        <path class="cls-68" d="M153.86,75.96c-.09,2.89.46,5.81.78,8.67,1.65,14.42,6.93,28.2,14.78,41.02,15.29,24.95,39.63,41.89,63.13,58.21l32.1,22.28c20.05,13.92,36.74,31.83,50.43,52.38,14.68,22.03,23.37,46.53,24.67,72.35.71,14.06-1.25,27.86-5.26,41.88-5.37,18.79-15.56,35.16-30.18,47.82-1.63,1.41-2.82,3.4-4.84,3.82.16-.33-.28-1.41.33-1.29,1.35.27,12.55-12.91,14.72-16.08,3.03-4.43,5.42-9.1,7.96-13.84,4.79-8.97,8.5-18.33,10.42-28.47l.98-5.18c.31-1.66.56-3.6.8-5.61l.6-5.1c.73-6.22,0-25.7-1.32-32.72l-1.31-6.95c-.98-5.21-1.87-5.19-2.19-5.93-.23-.55.46-1.08.3-1.65-1.11-3.76-5.94-16.54-7.86-20.1l-3.16-5.83c-.97-1.79-1.9-3.69-3.01-5.7-5.55-10.07-18.7-27.91-27.55-36.02-3.68-3.37-6.99-7.14-10.98-10.4l-10.79-8.83c-1.73-1.41-3.48-2.43-5.38-3.89l-4.91-3.79c-3.91-3.01-19.44-13.47-25.01-17.3l-8.94-6.14-12.47-9.4-8.79-6.69c-3.92-2.98-7.35-6.03-10.31-9.8-.2-.23-1.02-.21-1.29-.31-.37-.15-.16-1.17-.43-1.23-1.04,0-1.66-.14-1.39-1.39,1.4,2.47-4.97-4.54-2.9-3.72-4.59-2.56-6.95-6.77-9.99-10.42l-3.24-3.89c-4.72-5.67-9.59-15.54-12.77-22.52l-2.44-5.34c-1.24-2.72-1.53-5.59-2.51-8.33-1.75-4.88-2.98-24.08-1.85-24.52.3-.12.75.05,1.08,0Z"/>
        <path class="cls-50" d="M347.14,1.44c-2.86,2.21-7.01,1.41-10.36,1.64l-9.17.62-5.21,3.97c-3.27,2.49-5.34-.71-11.51,1.34-1.66.55-3.56-.46-4.84.28-1.15.67-11.12.95-13.24,1.25l-12.81,1.78-8.71,1.67c-9.94,1.9-16.32,2.58-26.86,5.23-2.41.61-4.9,1.34-7.38,1.82-2.09.4-4.3.16-6.23.93-3.64,1.46-7.05,2.78-10.58,3.76l-12.68,3.52c-4.12,1.14-9.14.02-12.9,2.79-.89.66-3.04.21-3.98,1.37-3.19,3.92-3.45-5-11.34,5.7-2.08,2.83-4.76,4.89-7.38,7.49-10.19,10.12-5.53,10.35-8.64,13.8-3.56,3.95-2.86,7.79-2.48,12.07.51,5.77-2.92,11.03-2.95,16.75,0,.84.9,1.23.65,1.87-.21.54-.02,1.23-.96.99-.93-2.51-1.56-5.35-1.78-8.08-2.01-25.95,6.07-37.26,26.82-50.94,1.06-.5,3.05-.5,3.38-2.07,1.01.11,2.11-.6,2.69-1.34.97-.05,2.09-.5,2.69-1.34.63-.39,2.56-.18,2.69-1.34.63.34,9.31-3.04,10.07-4.03,2.43-.26,5.61-1.03,7.38-2.69.72.27,1.68-.03,2.5-.3,14.42-4.69,29.29-6.94,44.42-9.92l4.57-.9,30.56-3.84,37.58-2.96c6.11-.48,9.59-.02,15.98-.89Z"/>
        <path class="cls-15" d="M157.59,92.07c-.27.8.09,1.81.2,2.64.05.35-.02.83.53.72-.25.28-.17.42.06.67.19.21.1.73.11.97,0,.2.05.48.46.37,0,2.74,1.59,5.36,2.2,8.02.16.71.77,1.6,1.22,2.1-.35.49.16.75.12,1.26-.03.38.1,1.04.66.76.38,2.14,1.56,4.09,2.61,5.98.18.32.12.89.68.68-.12.22-.03.45.03.67.1.35.11,1.03.7.73-.12.26.05.45.16.67,9.02,18.47,27.69,36.17,44.36,48.81,12.32,9.34,24.62,17.57,37.52,26.34,13.2,8.97,25.36,17.75,36.92,28.81,12.73,12.17,23.95,25.08,32.93,39.72,12.71,20.72,20.72,44.04,21.93,68.35-.43-.24-.86.3-1.21.53-1.3-25.82-9.99-50.32-24.67-72.35-13.69-20.55-30.37-38.46-50.43-52.38l-32.1-22.28c-23.5-16.31-47.84-33.26-63.13-58.21-7.86-12.82-13.13-26.6-14.78-41.02l1.17-.64c.21,2.73.85,5.57,1.78,8.08Z"/>
        <path class="cls-4" d="M341.64,248.51c0,.25.68.52.65.8-.48,4.69-3.84,8.08-7.89,9.84-.53-.25-1.16-.05-2.09.39l2.1,1.05c2.53,1.27,5.09,3.38,6.4,6.28.44.97-1.24.81-1.74,1.09l-11.43-5.43c-.52-.25,1.53-2.47.08-2.45.57-.64.76-2.3-.46-3.08.94-1.63,2.58-3.07,3.24-5.06,3.26-2.36,7.08-3.54,11.14-3.44Z"/>
        <path class="cls-60" d="M182.66,32.24l-.02.82c-20.76,13.68-28.83,24.99-26.82,50.94l-1.17.64c-.33-2.86-.88-5.78-.78-8.67.14-4.3.97-8.51,1.45-12.76.51.1.43-.39.5-.72l.78-3.25c.59.28.49-.44.6-.75,1.52-4.16,3.57-8.37,6.9-11.85,5.55-5.79,11.4-11.96,18.56-14.41Z"/>
        <path class="cls-45" d="M293.46,4.09c-.16.44.45.77.11,1.19l-30.56,3.84-4.57.9c-15.13,2.98-29.99,5.23-44.42,9.92-.82.27-1.78.57-2.5.3.93-.87,1.77-1.15,3.36-1.61l5-1.45c4.34-1.26,8.39-2.33,12.81-3.3l6.43-1.4,5.65-1.25,7.63-1.52,10.21-1.69c3.14-.52,5.98-1.75,9.43-1.52,1.12.08,19.06-2.12,21.43-2.42Z"/>
        <path class="cls-24" d="M339.06,267.97c-2.28,1.25-7.39,1.54-10.12.16-2.41-1.22-4.6-3.13-6.22-5.53,1.42-1.75,3.4-1.71,5-2.51,1.45-.02-.6,2.2-.08,2.45l11.43,5.43Z"/>
        <path class="cls-45" d="M204.14,22.93c-.76.98-9.44,4.37-10.07,4.03.15-1.36,1.43-1.17,2.35-1.56l2.95-1.25c1.92-.81,3.08-1.04,4.77-1.22Z"/>
        <path class="cls-45" d="M211.52,20.24c-1.77,1.66-4.96,2.42-7.38,2.69,1.3-1.67,6.64-2.97,7.38-2.69Z"/>
        <path class="cls-45" d="M186.01,30.98c-.33,1.58-2.31,1.58-3.38,2.07l.02-.82c1.08-.37,2.58-.82,3.36-1.25Z"/>
        <path class="cls-45" d="M188.7,29.64c-.57.75-1.67,1.45-2.69,1.34.79-.44,1.42-1.31,2.69-1.34Z"/>
        <path class="cls-45" d="M191.38,28.3c-.59.84-1.71,1.29-2.69,1.34.82-.02,1.24-1.84,2.69-1.34Z"/>
        <path class="cls-45" d="M194.07,26.95c-.12,1.16-2.06.95-2.69,1.34.75-.11,1.02-2.24,2.69-1.34Z"/>
        <path class="cls-50" d="M334.4,259.15c-.1.49.26.97.01,1.45l-2.1-1.05c.93-.44,1.56-.64,2.09-.39Z"/>
        <path class="cls-53" d="M329.49,251.18c-.27,2.35-3.49,6.13-6.4,5.98-3.34-.18-3.33-7.01-1.98-9.65.93-1.82,1.64-2.92,2.04-4.37,1.46-.36,1.73-2.46,3.55-3.29,2.14,3.25,3.23,7.44,2.79,11.33Z"/>
        <g>
          <path class="cls-35" d="M192.73,127.66c-.34.09-.61-.1-.67-.35-.09-.39-.03-.77-.14-.98-.89-1.73-1.98-2.61-3.85-2.26-7.86,1.47-13.55-3.74-15.53-10.53-.85-2.9-1.99-5.28-2.22-8.61-.33-4.87-1.06-9.78.95-14.18,4.18,8.92,13.62,7.23,20,18.74,2.4,4.32,1.35,8.73-.2,12.94-.64,1.73,1.22,3.8,1.66,5.22Z"/>
          <path class="cls-1" d="M221.65,130.46c-7.85,2.67-16.43,0-23.76-3.89-2.43.08-3,3.37-4.63,5.54-.1-1.83-.08-3.02-.53-4.46.54-.14.72.56,1.02.67.61.24.88-.39,1.08-.69,5.54-2.45.44-10.07,11.77-19.02,3.82-3.02,8.22-4.27,12.42-5.67.09,1.35-.61,2.5-1.63,3.84.77.37.8.2.96.07.33-.26,1.77-.26,1.18.74-.3.5-.76.55-.95.59-.23.04-.41.38-.29.77.35,1.15,3.05-2.75,3.1-1.59-.54,1.83-1.97,1.98-2.67,3.68,1.07.61,1.49-.52,2.52-1.03-.17.59-.25,1.13-.17,2.02,5.24-1.5,5.14-6.71,9.6-6.91-1.43,2.14-3.46,2.27-4.15,4.37,1.06.87,8.57-3.6,6.5-.93-.28.36-2.36.5-1.42.99l2.08,1.1c-1.17-.46-6.23-1.21-6.68.56-.19.74,1.06.77,1.31,1.49-1.36.2-2.14-1.04-3.03-1.06s-3.02.83-2.94,1.82c1.73,2.22,4.99,3.27,7.27,3.67-.44.53-.77,1.23-.95,1.08-.34-.28-.78-.48-1.13-.67l-6.74-3.84c-.87-.16-2.33.58-3.54,1.56,2.44,2.23,5.08,3.59,8.4,4.54-.66.57-.8,1.82-2,1.85-1.33.02-.06.55-.14.83-.02.06-4.03,1.08-8.07-1.53l-3.31-2.13c-1.03-.66-3.31-.43-3.07.79.35,1.74,2.8,2.71,4.46,3.53l5.4,2.65c-2.07-1.02,3.56,2.78,3.3,3.64-.09.31-.22.68-.56,1.03Z"/>
          <path class="cls-66" d="M201.99,87.87c.97,1.54-1.56,2.76-.47,5.13,1.04-.74,1.83-1.2,2.55-1.6,3.39.19-4.94,1.56-3.29,5.66,3.58-.56,6.31-2.63,9.4-4.43.91,1.28.16,2.53,1.12,3.47,5.55-2.26,7.58-7.03,10.3-5.23-.1,1.19-2.75,2.07-1.37,3.24-1.38,4.86-18.5,13.55-20.06,14.84-5.82,4.79-4.21,13.16-5.34,18.69-1.48-1.16-.81-3.77-.35-5.6,1.45-5.8-.38-12.04-4.44-16.54l-6.75-7.47c.9.06.99-1.61,2.28-1.83.45.6,1.92.21,2.45.52,3.18,1.84,7.01,8.04,8.69,7.02s.56-2.9.85-4.3c1.54-1.31.42-3.37.02-5.46,1.39.17,2.44-.52,2.57-1.86.44-4.42-4.12-3.17-7.66-9.51l7.58,6.33c.76.24,1.29-1.93,1.91-1.08Z"/>
          <path class="cls-73" d="M214.19,61.18c-1.75.7-1.74,3.16-2.99,4.55l-3.77,4.17c-1.15-1.02-1.41-1.83-1.32-3.33-.53.14-1.35.7-1.23,1.02.17.47,1.33.64.73,1.59s.02,1.5-.2,1.89c-.38.67-1.22,1.51-1.92.99-1.87-1.37-1.7-3.35-3.37-4.24.16,2.98,3.05,3.75,3.95,6.29,1.42-1.39,1.93-2.15,3.08-2.54,1.01-.35,2.24.33,2.48,1.2-1.05,2.05-3.56,3.54-5.08,5.04-.69,1.02-1.31,2.51-1.32,3.3-1.29-1.78-.56,2.87-2.24,2.24.16-1.46-9.82-4.78-9.49-16.2,2.45-1.43,4.24-4.08,6.86-5.4,3.69-1.86,8.61-4.98,10.23-9.4,4.21,9.11,4.64,4.93,5.62,8.83Z"/>
          <path class="cls-5" d="M192.49,82.62c3.54,6.33,8.1,5.09,7.66,9.51-.13,1.34-1.18,2.03-2.57,1.86.4,2.09,1.52,4.14-.02,5.46-5.43-5.33-13.76-10.25-15.85-19.64-.61-.35-1.47.54-2.36.24,1.16-2.5,1.43-5.56,3.85-7.79.54-.5,1.02.18,1.44.27,1.43.31,1.5-1.25,3.49-2.33-.66,5.27,2.17,8.52,4.36,12.44Z"/>
          <path class="cls-69" d="M222.2,75.23c-1.38-.84-3.78.3-3.77,1.86,0,.83,2.24,2.05,1.84,3.04-4.64,4.93-10.53,8.12-16.21,11.27-.72.4-1.51.86-2.55,1.6-1.09-2.37,1.44-3.59.47-5.13-.29-.46.19-.96.83-1.55-1.31-.4-1.98-1.66-1.84-2.97,1.68.62.95-4.03,2.24-2.24.43.14.74.92,1.25.87-1.58.16,6.51-3.98,7.22-4.61,3.69-3.3,7.39-6.68,7.15-10.19,1.9,1.14,2.14,6.2,3.35,8.05Z"/>
          <path class="cls-19" d="M222.2,75.23c2.98,2.05,2.97,16.25-1.97,18.89-1.38-1.17,1.26-2.05,1.37-3.24-2.72-1.8-4.75,2.97-10.3,5.23-.96-.95-.22-2.19-1.12-3.47-3.09,1.8-5.83,3.86-9.4,4.43-1.65-4.11,6.68-5.47,3.29-5.66,5.67-3.15,11.56-6.33,16.21-11.27.4-.99-1.85-2.21-1.84-3.04,0-1.56,2.39-2.71,3.77-1.86Z"/>
          <path class="cls-76" d="M231.64,156.23c-4.26.38-8.57-1.33-12.63-2.31,5.74-8.42,12.72-10.57,22.67-6.43-2.2,4.6-5.58,8.34-10.04,8.74Z"/>
          <path class="cls-2" d="M197.56,99.44c-.29,1.41.9,3.23-.85,4.3s-5.51-5.17-8.69-7.02c-.53-.31-2,.08-2.45-.52-1.29.22-1.38,1.89-2.28,1.83-4.58-5.07-6.88-11.64-3.95-18,.89.3,1.75-.59,2.36-.24,2.09,9.39,10.43,14.31,15.85,19.64Z"/>
          <path class="cls-58" d="M218.85,67.18c.24,3.51-3.47,6.89-7.15,10.19-.71.63-8.8,4.77-7.22,4.61-.51.05-.83-.74-1.25-.87,0-.79.62-2.28,1.32-3.3,1.52-1.5,4.04-2.99,5.08-5.04-.24-.88-1.47-1.55-2.48-1.2-1.15.39-1.65,1.15-3.08,2.54-.9-2.54-3.79-3.31-3.95-6.29,1.67.89,1.5,2.87,3.37,4.24.71.52,1.54-.31,1.92-.99.22-.39-.41-.94.2-1.89s-.55-1.12-.73-1.59c-.12-.32.7-.88,1.23-1.02-.09,1.5.18,2.31,1.32,3.33l3.77-4.17c1.25-1.39,1.24-3.85,2.99-4.55.62.64,1.7,2.23,2.17,3.11,1.97-.04,1.67,2.41,2.48,2.89Z"/>
          <path class="cls-38" d="M191.49,67.16c-.33,11.42,9.65,14.73,9.49,16.2-.14,1.31.53,2.57,1.84,2.97-.63.59-1.11,1.1-.83,1.55-.63-.85-1.15,1.32-1.91,1.08l-7.58-6.33c-2.19-3.92-5.02-7.17-4.36-12.44-1.99,1.08-2.07,2.65-3.49,2.33.08-.63,6.48-9.34,6.85-5.35Z"/>
          <g>
            <path class="cls-6" d="M219.01,153.92c4.05.98,8.37,2.69,12.63,2.31-.09.8.77.86,2.03,1.56-1.95,2.77-4.65,5.49-7.74,6.87-6.4,2.85-11.62-.87-16.54-3.34-3.95-1.99-8.13-4.27-9.62-9.07-1.66-5.34-.4-11.24,2.41-16.23,4.43,2.6,7.96,6.38,9.85,11.1s.47,9.41-3.01,12.66c1.79-.4,6.53-5.76,8.12-7.43-7.45-11.16-.32-16.82,4.52-21.88.34-.35.47-.72.56-1.03.26-.86-5.37-4.66-3.3-3.64l-5.4-2.65c-1.66-.82-4.11-1.79-4.46-3.53-.25-1.22,2.04-1.45,3.07-.79l3.31,2.13c4.05,2.6,8.06,1.59,8.07,1.53.08-.29-1.19-.81.14-.83,1.2-.02,1.33-1.27,2-1.85-3.32-.94-5.95-2.3-8.4-4.54,1.2-.98,2.67-1.72,3.54-1.56l6.74,3.84c.35.2.79.39,1.13.67.18.15.51-.55.95-1.08-2.28-.4-5.54-1.45-7.27-3.67-.08-.99,2.08-1.83,2.94-1.82s1.67,1.25,3.03,1.06c-.25-.72-1.5-.75-1.31-1.49.45-1.78,5.52-1.03,6.68-.56l-2.08-1.1c-.94-.5,1.14-.64,1.42-.99,2.07-2.68-5.45,1.79-6.5.93.69-2.1,2.71-2.23,4.15-4.37-4.46.21-4.36,5.41-9.6,6.91-.08-.88,0-1.43.17-2.02-1.03.51-1.45,1.63-2.52,1.03.7-1.7,2.13-1.85,2.67-3.68-.05-1.16-2.75,2.74-3.1,1.59-.12-.39.06-.73.29-.77.19-.03.65-.08.95-.59.59-.99-.85-.99-1.18-.74-.16.13-.19.3-.96-.07,1.02-1.33,1.72-2.49,1.63-3.84,1.11-.37,2.41.5,3.22.34,2.36-.46,4.31-.26,6.76-.01l12.03,1.21c1.88.19,3.46-.46,4.71-1.73l-2.93,6.59c-1.04,2.34-1.31,5.3-2.44,7.58-.6,1.21-1.24,2.19-1.74,3.47-2.04,5.22-7.82,8.42-13.51,9.91,2.48,7.15,1.32,15.07-4.69,19.63-1.48,1.12-3.16,1.64-3.66,3.99.77.24,1.57.05,2.24,0Z"/>
            <circle class="cls-1" cx="224.19" cy="106.75" r=".66"/>
          </g>
        </g>
        <g>
          <path class="cls-50" d="M349.81,198.02c-1.34-.04-2.74-1.24-3.88-1.71-.54.86-1.96,2.5-2.78,3.22.55,1.14,2.08,2.74,2.34,3.73,1.25-.37,2.57-.96,3.53-.35,3.67,14.6-4.72,19.59-6.56,32.8-.42,2.99.53,5.89-.43,8.58-.52,1.46-.35,2.91-.4,4.23-4.06-.09-7.88,1.08-11.14,3.44-.5.03-.84-.34-1.01-.77.45-3.9-.64-8.08-2.79-11.33-1.82.84-2.09,2.93-3.55,3.29-3.84,2.56-4.46,8.99-2.25,14.34.24.58-.92,1.94.88,2.53.59.19.09,1.75-.24,2.27-.49.76-1.75-.68-2.51-.29-8.98-14.64-20.2-27.54-32.93-39.72-11.56-11.06-23.72-19.84-36.92-28.81-12.91-8.77-25.21-17-37.52-26.34-16.67-12.64-35.33-30.34-44.36-48.81,1.72.45,2.66-.23,4.05-1.05,1.5-.87,1.41-1.88,1.18-3.74,1.98,6.79,7.66,12,15.53,10.53,1.87-.35,2.96.53,3.85,2.26.11.21.05.58.14.98.06.25.34.44.67.35.45,1.44.43,2.64.53,4.46,1.62-2.17,2.2-5.46,4.63-5.54,7.34,3.89,15.91,6.56,23.76,3.89-4.84,5.06-11.97,10.72-4.52,21.88-1.59,1.67-6.33,7.03-8.12,7.43,3.48-3.25,4.91-7.91,3.01-12.66s-5.42-8.5-9.85-11.1c-2.81,4.99-4.07,10.89-2.41,16.23,1.49,4.8,5.67,7.08,9.62,9.07,4.92,2.47,10.15,6.19,16.54,3.34,3.09-1.38,5.79-4.1,7.74-6.87-1.26-.7-2.11-.76-2.03-1.56,4.46-.4,7.85-4.14,10.04-8.74-9.95-4.13-16.93-1.99-22.67,6.43-.67.06-1.47.25-2.24,0,.5-2.35,2.18-2.87,3.66-3.99,6-4.56,7.17-12.48,4.69-19.63,5.69-1.5,11.46-4.69,13.51-9.91.5-1.27,1.14-2.26,1.74-3.47,1.13-2.28,1.4-5.23,2.44-7.58l2.93-6.59c-1.26,1.28-2.83,1.92-4.71,1.73l-12.03-1.21c-2.45-.25-4.4-.45-6.76.01-.81.16-2.11-.71-3.22-.34-4.2,1.4-8.6,2.65-12.42,5.67-11.33,8.95-6.23,16.57-11.77,19.02,1.13-5.53-.48-13.9,5.34-18.69,1.56-1.28,18.68-9.97,20.06-14.84,4.95-2.64,4.95-16.83,1.97-18.89-1.22-1.85-1.45-6.91-3.35-8.05-.82-.49-.52-2.93-2.48-2.89-.46-.88-1.54-2.47-2.17-3.11-.98-3.9-1.4.28-5.62-8.83-1.62,4.42-6.54,7.54-10.23,9.4-2.62,1.32-4.41,3.98-6.86,5.4-.37-3.99-6.76,4.73-6.85,5.35-.43-.09-.9-.78-1.44-.27-2.42,2.23-2.69,5.29-3.85,7.79-2.94,6.36-.63,12.93,3.95,18l6.75,7.47c4.06,4.5,5.88,10.74,4.44,16.54-.46,1.83-1.12,4.43.35,5.6-.2.3-.47.92-1.08.69-.3-.12-.47-.82-1.02-.67-.45-1.42-2.3-3.49-1.66-5.22,1.55-4.21,2.6-8.61.2-12.94-6.38-11.51-15.83-9.82-20-18.74-.56-1.2.04-3.59-1.11-5.05.66-1.73,1.9-4.43,3.32-6.06l4.52-5.2,4.94-10.52c.69-1.46,2.44-2.52,2.9-4.17,1.61-5.82,5.53-9.83,9.94-13.68,2.7-2.36,17.05-6.2,20.9-6.89l17.73-3.17c2.23-.4,4.76.78,6.78-.26s4.67-.69,7.29-.73l34.17-.49c2.48-.04,4.65.4,6.85.77l3.53.59c3.88.65,8.3-.1,12.54.93,3.19.77,6.67.91,10.01,1.64l16.45,3.6c2.33.51,6.53,1.83,5.84,4.88-3.95,17.47-6.17,8.72-5.13,27.5l.69,12.45.66,11.4.54,9.05c.33,5.62.74,11.22,1.85,17.05l6.27,33.02c2.16,11.4,7.29,22.62,7.16,33.91l-.08,6.7Z"/>
          <g>
            <path class="cls-33" d="M349.81,198.02c0,.2-.08.48-.03.73-.68-.27-.69.55-.64,1.07.04.35-.22,1.05.46,1.01-.3.68-.04,1.51-.58,2.07-.96-.61-2.28-.01-3.53.35-.27-.99-1.79-2.59-2.34-3.73.82-.72,2.24-2.35,2.78-3.22,1.14.48,2.54,1.67,3.88,1.71Z"/>
            <path class="cls-67" d="M243.46,68.1l-5.12-7.1c-1.47-2.04-4.99-.51-6.94-2.46,7.25-10.37,1.98-7.84,3.53-15.63,6.74-1.56,2.53,3.23,14.15-1.22l.66,9.43,5.46,6.11c2.52,2.81-6,2.03-7.34,4.09l-4.4,6.78Z"/>
            <path class="cls-29" d="M269.93,70.07c-3.77.58-5.98,1.58-7.42,4.15-3.4-.88.44-3.77-6.01-5.38l3.42-4.88c.51-.72.11-2.75,1.02-3,2.94-.79.48,2.55,7.88.92-1.53,2.99-.28,5.31,1.12,8.18Z"/>
            <path class="cls-89" d="M266.19,92.98c-2.13-4.27-3.7-3.22-3.85-5.93-.05-.97,3.37-3.8,3.58-3.88.64-.26,4.2,1.41,3.99,1.19.66.67,0,2.35,1.76,6.01l-5.48,2.61Z"/>
            <path class="cls-63" d="M320.3,90.23c-2.5-.65-3.84.56-5.34,1.47-.95-1.02-1.63-3.54-3.5-4.73.89-1.18,2.68-3.09,3.36-4.36,1.16.8,3.26,1.82,5,1.5-.35,2-1.36,3.44.48,6.12Z"/>
            <path class="cls-43" d="M290.1,101.27c-.79,4.96,2.5,5.82-1.39,6.24-1.44.15-2.78.79-3.62-.48-.47-.71-1.77-1.96-.94-3.14s1.73-1.95,2.3-3.06c1.53.9,2.4.64,3.64.44Z"/>
            <g>
              <path class="cls-78" d="M285.37,132.36c-2.54,7.07,5.08,20.28,9.5,26.32,1.11-1.36,2.48-1.45,2.06-3.15-.15-.61,1.07-.17,1.27-.48.31-.49.64-1.12.44-1.26l-1.71-1.15c.22.15-9.74-16.79-7.18-19.68,1.55,7.42,5,14.12,9.25,20.49,1.95-2.36,3.76-4.75,3.69-5.98-.03-.44-5.38-6.87-5.61-9.99-.48-.45-.37-1.18.39-1.1.47,2.14,3.98,7.98,5.87,10.42,3.81-4.62,3.35-4.95,1.57-9.08,1.03.33.82,1.38,2.34,2.13.32-1.36,3.13-3.83,2.49-5.13-.87-1.77-.18-2.74-.19-3.7-.17.5.64.67.8,1.4-.58,1.39.94,1.94,1.21.62,2.71-.71-3.72,5.44-2.82,7.71,1.9-1.37,3.29-1.63,4.91-1.46l-5.43,2.35c-.79.34-4.73,6.39-1.56,5.12l2.29-.91c3.39-1.36,7.53-2.21,11.48-3.37-4.15,3.78-9.72,4.08-15.14,4.9-2.15.33-3.25,3.8-3.91,5.73,9.31-1.16,12.17-1.98,19.82-4.59-10.67,7.66-20.91,2.34-22.87,8.35-.14.43-.97.79-.9,1.35.08.63.73.56,1.03.83.71.63,1.11-1.16,1.57-1.04,2.49.61,4.11.37,6.02-.63.36-.13,1.54.53,1.88.48.52-.09.95-1.29,1.48-1.15l1.8.46c.94.24.84-1.18,1.45-1.21.87-.04,1.37.55,1.78.23,2.08-1.65,3.42-1.86,6.54-2.21.02.36.2,1.1-.54,1.39-6.64,2.55-13.61,4.68-20.99,4.47-2.78-.08-5.47,1-5.34,4.04.83.28,2.67-.5,2.75.66-2.55.11-6.82,1.84-6.57,5.54-1.31-.19-2.78-.1-3.73.02-1.28-2.38-1.85-5.21-4.15-7.53-.95,1.17-2.36,2.18-3.59,3.35l3.49,10.28c.55,1.61-.83,3.6-.31,5.19-4.53,5.34-4.67,8.35-8.43,13.55-1.1-1.64.51-2.32,1.02-3.39,2.12-4.4,5.02-8.19,4.82-12.87-.06-1.52.87-3.6.07-5.37l-7.88-17.49c-3.93-8.73-1.81-18.19,5.17-24.14,7.19-1.91-1.21,4.12,5.97,18.2,2.35,4.61,5.16,9.23,7.77,13.55,1.57-.26,2.68-1.29,2.95-2.03.33-.89.22-2.62-.47-3.63l-3.09-4.54c2.97,4.37-6.32-11.77-4.55-5.66.13.45.34-1.82.5-2.51.11-.5-1.11-.55-1.13-1,.51-.85.56-1.1.48-1.29-.09-.22-1.08-.23-1.02-.52.08-.4.27-1.09.44-1.45.47-.97-1.35-.92-1.19-1.42.74-2.29.59-4.28.52-6.14-.72-.45-.63-.87-.22-.87h1.63Z"/>
              <path class="cls-70" d="M330.34,142.33c-2.01-.84-2.65,1.52-4.16,2.61l-4.98,3.57c-7.65,2.61-10.51,3.43-19.82,4.59.66-1.93,1.76-5.4,3.91-5.73,5.42-.82,10.99-1.13,15.14-4.9-3.95,1.16-8.09,2.01-11.48,3.37l-2.29.91c-3.18,1.27.77-4.78,1.56-5.12l5.43-2.35c-1.61-.17-3,.09-4.91,1.46-.9-2.27,5.53-8.42,2.82-7.71-1.01-2.04,1.48-3.86,2.67-5.38,1.7-2.16,2.33-4.81,5.24-6.74-1.27-1.17-1.85.8-2.74-.41.4-1.81,1.34-2.97,1.27-4.49-4.33.58,1.27,8.76-3.82,8.84-2.13.03-.47-4.25-1.71-6.93-.34-.72-1.7.04-2.11-1.02,2.85-.54,11.12-4.61,11.79-9.59-.17,9.51,4.69,12.81,4.71,19.65.02,5.8,3.25-1.14,3.48,15.36Z"/>
              <path class="cls-14" d="M327.02,162.03c-1.04,3.06-4.64,5.6-6.78,8.05-13.26,7.54-25.15,4.99-38.22,11.28-.52-1.6.86-3.58.31-5.19l-3.49-10.28c1.23-1.17,2.64-2.18,3.59-3.35,2.3,2.32,2.87,5.15,4.15,7.53.95-.12,2.41-.21,3.73-.02-.25-3.71,4.02-5.44,6.57-5.54,8.92-.37,18.01-2.29,26.29-6.38.79-.39,1.32-1.51,2.22-1.16.27.1,1.23,1.88.51,3.2l1.12,1.86Z"/>
              <path class="cls-13" d="M298.21,120.95c-3.94,5.13-2.29,8.44-.75,15.43-.76-.08-.86.65-.39,1.1.24,3.12,5.59,9.55,5.61,9.99.07,1.22-1.75,3.61-3.69,5.98-4.25-6.37-7.7-13.07-9.25-20.49-2.56,2.89,7.4,19.83,7.18,19.68l1.71,1.15c.21.14-.12.76-.44,1.26-.2.32-1.42-.13-1.27.48.42,1.7-.95,1.79-2.06,3.15-4.42-6.04-12.04-19.25-9.5-26.32.57-1.58.29-3.64,1.06-5.23-1.31-.39-1.29-1.13-.73-1.5.39-.26.68-.39,1.02-.18.21.6,14.63-9.83,11.49-4.49Z"/>
              <path class="cls-90" d="M279.42,178.65c.2,4.68-2.7,8.47-4.82,12.87-.52,1.07-2.13,1.75-1.02,3.39,3.76-5.2,3.9-8.21,8.43-13.55,13.08-6.29,24.96-3.73,38.22-11.28-.76.86-.94,1.97-2.42,2.86-11.12,6.71-20.62,5.36-22.03,6.79-.26.26-.07,1.41.58,1.45l7.51.44c3.32.19,6.26,1.67,9.71,2.65-.25.47-.75.65-.73,1.14.32-.68-11.27-3.36-10.7-3.37-10.74.22-20.58,5.1-26.41,14.52-1.08,1.74-4.31,2.14-4.92.34s-1.23-3.04-1.82-5.14c5.94-5.42,7.73-13.49,5.42-21.08.41-.31-.2-.82.26-1.55,2.14,1.54,2.29,3.69,2.75,6.1.04.23,1.01-.05.87.39-.23.73-.33,2.88-.02,3.07.28.17.77.04,1.13-.02Z"/>
              <path class="cls-7" d="M312.86,185.4c0,.27-.25.68-.33.92-.05.15.43.55.93.66,9.73,2.15,9.91,8.24,20.94,9.34-3.16,2.88-5.92,5.17-7.49,8.43-.88-.77-1.27,1.32-2.08.23s-6.1,1.37-8.58-7.51c1.64-.08,3.64.56,5-1.74-2.72.24-4.97,1.01-8.09.55-.93-.69.83-1.36,1.67-1.97-2.37.49-4.34,2.08-7.33,1.04.06-.9.97-1.17,1.25-1.78.69.28,2.1-.63,1.98-1.27-.92-.77-1.76.7-1.98,1.27-.51.32-1.39.3-1.82.03s-1.81-1.32-1.05-1.73c1.33.19,4.28-5.67,4.17-5.27.72-2.7-6.5,1.25-6.71.07,1.24-.76,2.51-.79,3.71-1.85-2.45-.86-4.35.07-6.25,1.12.14-2.16,2.62-.6,3.42-2.18-.55-.66-1.12-.52-1.63-.65-.37-.09-.52-.51-.44-1.1-.57.01,11.02,2.69,10.7,3.37Z"/>
              <path class="cls-62" d="M286.72,125.44c-.33-.21-.62-.08-1.02.18-.56.37-.58,1.11.73,1.5-.77,1.59-.49,3.65-1.06,5.23h-1.63c-.41,0-.5.42.22.86.07,1.85.22,3.85-.52,6.14-.16.5,1.65.44,1.19,1.42-.17.36-.36,1.05-.44,1.45-.06.29.93.3,1.02.52.08.19.03.44-.48,1.29.02.44,1.24.5,1.13,1-.15.69-.37,2.96-.5,2.51-1.77-6.11,7.52,10.03,4.55,5.66l3.09,4.54c.69,1.01.8,2.74.47,3.63-.27.73-1.38,1.77-2.95,2.03-2.61-4.32-5.42-8.95-7.77-13.55-7.18-14.08,1.22-20.11-5.97-18.2,2.99-2.55,5.18-6.29,9.87-7.4.05.18.08.75.06,1.19Z"/>
              <path class="cls-74" d="M331.69,148.47c-1.12,3.54-2.15,7.28-4.2,10.46,1.08.81,1.36,1.27.71,1.97-.3.32-.9.91-1.18,1.12l-1.12-1.86c.72-1.32-.25-3.09-.51-3.2-.9-.35-1.43.77-2.22,1.16-8.28,4.09-17.37,6-26.29,6.38-.08-1.16-1.91-.38-2.75-.66-.13-3.03,2.56-4.12,5.34-4.04,7.38.22,14.35-1.91,20.99-4.47.74-.28.56-1.02.54-1.39,1.56-1.18,3.9-1.64,5.52-3.29.48-.49.47-1.94,1.36-1.3.29.21.45.93,1.13,1.24,1.99.93.57-3.12,2.7-2.14Z"/>
              <path class="cls-32" d="M330.34,142.33c.02,1.73.34,3.39-.36,5.27,1.25-.04,1.83.07,1.71.87-2.13-.98-.71,3.06-2.7,2.14-.67-.31-.84-1.04-1.13-1.24-.88-.64-.88.81-1.36,1.3-1.62,1.65-3.96,2.11-5.52,3.29-3.12.35-4.46.57-6.54,2.21-.41.33-.91-.26-1.78-.23-.62.03-.52,1.45-1.45,1.21l-1.8-.46c-.53-.14-.96,1.06-1.48,1.15-.34.06-1.53-.6-1.88-.48-1.92,1-3.54,1.24-6.02.63-.46-.11-.85,1.68-1.57,1.04-.3-.27-.95-.2-1.03-.83-.07-.56.76-.92.9-1.35,1.96-6,12.2-.69,22.87-8.35l4.98-3.57c1.52-1.09,2.15-3.45,4.16-2.61Z"/>
              <path class="cls-36" d="M247.81,168.61c-.03.52-.19,1.24.33,1.74,6.62,6.33,12.94,2.92,16.06,6.86.26.33-.39.91-.72,1.16-.61.46-1.05-1.13-1.52-1.01-1.55.37-3.16.98-4.02-.62-.64.42-.9.47-1.12.45-.55-.03-.86-.46-1.27-1.15-.12-.21-.57.45-.8.54-.44.18-.97-.6-1.1-1.2l-3.99,2.08c-1.17.61-2.79.78-2.55,2.38.82.29.89,1.12.1.92-2.82-3.57-6.41-7.08-6.72-12.13.7.39.74-.63.78-1.37.07-1.19.99-1.26,1.52-1.36,2.22-.39,1.3,1.23,5.02,2.72Z"/>
              <path class="cls-54" d="M288.06,212.83c-4.54-3.5-8.77-7.55-10.72-13.36,4.96-1.06-.4-.51,3.36-2.23.55-.25,2.33.28,2.64.83,2.37,4.16,4.52,8.64,7.86,12.38-1.52.41-2.89,1.08-3.14,2.38Z"/>
              <path class="cls-69" d="M316.25,197.48c2.48,8.88,7.76,6.39,8.58,7.51s1.19-1,2.08-.23c-.91,1.89-2.42,3.49-3.99,4.82.2-.75-.52-.82-1.27-.87-6.52-.45-9.43-6.37-11.86-11.32,4.9-1.45,2.97.27,6.47.11Z"/>
              <path class="cls-16" d="M311.55,133.03c-.27,1.32-1.79.77-1.21-.62-.16-.73-.97-.9-.8-1.4-.03-2.13-2.33-6.1-1.21-8.61.2-.45-1.24-1.38-.66-1.77.2-.14.43-.34.84-.81.66-.75.49-1.98-.24-2.28,1.81-1.55,1.07-.43,2.1-.63.41,1.06,1.77.29,2.11,1.02,1.24,2.68-.42,6.96,1.71,6.93,5.09-.08-.51-8.26,3.82-8.84.07,1.52-.87,2.67-1.27,4.49.89,1.22,1.46-.76,2.74.41-2.92,1.93-3.54,4.57-5.24,6.74-1.2,1.52-3.68,3.33-2.67,5.38Z"/>
              <g>
                <path class="cls-26" d="M274.43,170.67c2.31,7.6.52,15.66-5.42,21.08.59,2.09,1.22,3.37,1.82,5.14s3.84,1.41,4.92-.34c5.82-9.42,15.67-14.3,26.41-14.52-.08.59.08,1.01.44,1.1.51.12,1.08-.01,1.63.65-.8,1.58-3.28.02-3.42,2.18,1.91-1.05,3.8-1.98,6.25-1.12-1.21,1.06-2.47,1.09-3.71,1.85.21,1.18,7.43-2.77,6.71-.07.11-.4-2.84,5.47-4.17,5.27-.76.41.6,1.46,1.05,1.73s1.31.28,1.82-.03c-.28.61-1.19.87-1.25,1.78,2.99,1.04,4.96-.55,7.33-1.04-.84.61-2.6,1.28-1.67,1.97,3.11.45,5.36-.31,8.09-.55-1.36,2.3-3.36,1.66-5,1.74-3.5.16-1.57-1.56-6.47-.11,2.43,4.95,5.34,10.88,11.86,11.32.75.05,1.47.13,1.27.87,1.02,1.53-4.6,4.88-5.29,5.13.05-.02,1.82,4.16-12.64,4.02-6.99-.07-12.18-2.22-16.92-5.88.25-1.3,1.61-1.97,3.14-2.38-3.34-3.74-5.49-8.22-7.86-12.38-.31-.55-2.09-1.08-2.64-.83-3.76,1.72,1.61,1.17-3.36,2.23-3.58-1.97-7.1,1.18-9.67,4.46-1.01-2.52,1.81-2.95,2.15-5.26.25-1.7-.74-5.84-2.68-6.33-8.11-2.07-15.12-5.49-19.93-11.59.79.2.72-.63-.1-.92-.24-1.59,1.38-1.77,2.55-2.38l3.99-2.08c.13.61.66,1.38,1.1,1.2.23-.09.67-.74.8-.54.41.69.72,1.12,1.27,1.15.22.01.48-.03,1.12-.45.85,1.6,2.47,1,4.02.62.48-.11.92,1.47,1.52,1.01.33-.25.98-.83.72-1.16-3.12-3.95-9.43-.53-16.06-6.86-.52-.5-.36-1.21-.33-1.74.03-.8.72-1.19,1.45-1.78-.53-.71-1.66-.62-1.3-1.76,3.89,2.58,8.15,4.28,12.86,4.25-.25-1.4-.96-2.29-1.61-3.52-11.4-.19-8.94-4.63-14.29-5.67-.85-.16-.96-1.92-1.19-2.15-1.12-.1-1.94,1.42-2.91,1.12,1.3-5.03,2.52-10.25,4.71-15.08l2.26-4.96c1.1,3.19,1.57,6.7,4.62,8.34,2.86,1.53,4.39,4.51,7.42,5.71.57.09,1.02-.69,1.35-.23,1.87,2.64,10.07,7.25,13.27,17.78Z"/>
                <path class="cls-79" d="M247.81,168.61c-3.71-1.49-2.8-3.11-5.02-2.72-.54.1-1.46.16-1.52,1.36-.04.74-.08,1.75-.78,1.37-.18-3.05-.47-6.48.32-9.51.97.3,1.79-1.22,2.91-1.12.23.23.34,1.98,1.19,2.15,5.35,1.03,2.89,5.48,14.29,5.67.65,1.23,1.36,2.12,1.61,3.52-4.71.03-8.97-1.67-12.86-4.25-.36,1.14.77,1.05,1.3,1.76-.72.59-1.42.99-1.45,1.78Z"/>
                <path class="cls-71" d="M313.91,205.6c-1.1.91-1.76,2.16-3.09,2.43-3.08-3.39-4.76-6.89-6.34-10.6,1.25-.72,3.72-1.19,4.46-.02,1.65,2.61,2.31,5.55,4.97,8.19Z"/>
                <path class="cls-42" d="M307.97,205.89c.19.94-3.93,1.47-2.12,1.53-2.38-.08-5.31-7.14-6.19-10.09.54-.86,2.24-.79,3.39-.72-.44,1.33-.03,1.39.79,1.5,1.06,1.53,2.32,4.54,2.63,6.53-.25-1.58,1.54,1.49,1.49,1.25Z"/>
                <path class="cls-37" d="M293.26,199.57c.2.29,4.26,7.02,3.67,7.71s-1.78,1.48-2.37.62c-2.31-3.4-4.98-7.01-5.91-11.11,0-.89,3.26-1,3.71.07.33.8.37,1.95.9,2.71Z"/>
              </g>
              <g>
                <path class="cls-44" d="M308.27,117.53c.72.3.89,1.53.24,2.28-.41.47-.64.68-.84.81-.58.4.86,1.33.66,1.77-1.12,2.5,1.18,6.48,1.21,8.61.02.96-.68,1.93.19,3.7.64,1.3-2.17,3.77-2.49,5.13-1.53-.74-1.31-1.79-2.34-2.13,1.78,4.14,2.24,4.46-1.57,9.08-1.89-2.44-5.4-8.28-5.87-10.42-1.54-6.99-3.19-10.3.75-15.43,3.38,1.75,6.13-3.84,10.06-3.42Z"/>
                <path class="cls-78" d="M303.77,136.14l-1.18-1.92c.75-.9,1.03-.06,1.29.2.45.43.62,1.57-.11,1.72Z"/>
              </g>
              <path class="cls-26" d="M308.75,193.59c.22-.57,1.06-2.04,1.98-1.27.12.64-1.29,1.55-1.98,1.27Z"/>
            </g>
          </g>
        </g>
      </g>
    </g>
    <g>
      <path class="cls-81" d="M165.86,300.19c20.21,11.14,38.6,24.85,53.58,43.22,24.06,29.5,45.52,60.08,65.29,91.7,2.57-1.31,5.12-2.5,6.7-4.53.26.37.37.14.65-.03.51-.31,1.23-.67,1.35-1.31.34.13.34.14.67-.05.86-.48,1.64-1.22,2.01-2.12,1.43.08,2.84-1.6,3.36-2.69,2.02-.42,3.21-2.41,4.84-3.82,14.62-12.66,24.82-29.03,30.18-47.82,4.01-14.02,5.97-27.81,5.26-41.88.34-.22.78-.76,1.21-.53.71,14.36-1.17,28.41-5.06,42.54-3.27,11.92-8.71,22.44-14.95,32.7-.73.42-1.79,1.1-2.13,2.01-.1.27-.38.39-.06.67-1.08.64-1.88,1.72-2.64,2.69-.52.66-.94,1.23-1.24,1.93-1.24.91-2.59,2.05-3.34,3.43-.7.38-.94.68-1.34,1.34-1.58,1.01-3.06,2.49-4.05,4.08l-4.01,3.19c-.3.24-1.03.28-.7.82-3.75,2.76-10.31,7.83-14.07,9.94-.35.19-1.14.53-1.25,1.12-.09.45.93.74,1.09,1.05.8,1.9,2.06,5.69,4.19,6.73,2.29,4.95,5.34,9.79,8.72,14.03.12.29-.09.72,0,1,.11.37.27.71.66.44,3.27,6.56,7.42,12.59,11.32,19.32l15.94,27.52c-.76-.13-1.36.37-.7.8.71.46.21.9.32,1.3l-13.36-22.86c-.18-.31-.12-1.08-.73-.76.17-.52-.35-.84-.56-1.25-.16-.31-.16-1.06-.68-.74-2.76-6.06-6.86-11.48-10.08-17.39-.19-.35-.22-1.11-.77-.76-2.82-5.81-6.7-11.08-9.97-16.69-.19-.33-.21-1.11-.75-.78.25-.54-.38-.81-.58-1.24-.15-.31-.18-.83-.66-.67.2-.3.1-.38-.04-.67-.26-.53-.65-1.22-1.29-1.34.13-.34.08-.35-.05-.67-.18-.45-.27-.96-.88-.75-.38-1.08-1.2-3.57-2.72-3.81-2.81-.43-6.06,1.54-7.91,3.2-.51-.36-.78-.02-1.64.02-.26.01-.34.26-.39.67-.87-.19-2.32.6-2.69,1.34h-.99c-.21,0-.48.11-.35.5-.27-.27-.43-.15-.67.06s-.73.09-.98.11c-.21.02-.47.17-.37.54-.3-.24-.4-.06-.67.04-.32.13-.82.12-.67.61-.29-.22-.4-.15-.67.05s-.63.06-.99.1c-.26.03-.69.12-.41.53-10.47,3.09-21.02,6.4-31.81,7.89-.26-.6-1.38-.76-1.15-1.52,11.11-1.49,21.91-4.53,32.35-8.26,6.21-2.22,12.5-4.53,18.67-8.66-20.02-31.95-41.26-62.08-64.6-90.9-19.26-23.79-44.45-41.08-72.81-50.91,3.85-3.27,5.69,1.87,7.85.37.23.98.77.62,1.16.51s.24.93.98,1.44c.82-.72,1.2-1.08,1.39-.11,2.43,2.27,6.05,2.51,8.66,3.95Z"/>
      <path class="cls-9" d="M26.85,302.88c.36.04.63-.14,1-.12.41.02.81.15.48.64-4.47,2.67-8.53,7.91-11.7,12.07-10.68,14.02-14.94,30.92-13.49,48.53,1.8,21.87,9.76,51.97,22.35,69.87,4.53,6.45,10.67,11.38,18.16,14.01,31.52,11.08,67.2,16.04,102.4,14.56,18.51-.78,36.14-2.97,54.24-5.4l31.94-4.27c-.23.76.89.91,1.15,1.52l-38.38,5.31c-10.91,1.51-32.18,4.02-43.12,4.39-.21,0-.8.01-1.03,0-.21,0-.49.03-.4.46-24.71,1-49.14-.42-73.82-5.38-11.66-2.35-22.53-4.84-33.41-8.97-4.52-1.71-8.45-4.23-12.25-6.88-1.43-2.1-3.41-3.84-5.4-5.41-.52-.41-.71-1.16-1.49-1.47-6.42-10.91-12.15-22.12-15.69-34.77-1.2-4.28-2.71-8.09-3.48-12.02l-2.5-12.89c-1.87-9.62-2.55-19.49-1.52-28.99s9.2-27.44,9.24-27.35c.31-.04.57.01.68-.34.08-.28-.12-.71,0-1,1.81-1.89,3.8-4.22,4.7-6.71,1.99-1.38,4.03-3.35,5.37-5.37,1.22-.31,1.96-1.97,2.69-2.69l3.3-1.34Z"/>
      <path class="cls-68" d="M166.71,298.09c2.55,1.65,5.32,2.86,8.25,4.29,5.08,2.48,9.99,6.06,14.34,9.1,14.35,10.03,22.55,17.54,33.74,30.4l4.64,5.34,23.89,31.28,15.25,21.72,6.05,9.11c3.63,5.46,7.52,10.45,10.5,16.4,1.76,3.5,4.36,6.03,8.06,4.86-1.58,2.04-4.13,3.23-6.7,4.53-19.77-31.62-41.23-62.2-65.29-91.7-14.98-18.37-33.38-32.09-53.58-43.22l-.64-1.6c-.2-.49,1.15-.43,1.49-.5Z"/>
      <path class="cls-59" d="M166.71,298.09c-.34.07-1.69,0-1.49.5l.64,1.6c-2.61-1.44-6.22-1.68-8.66-3.95-.19-.96-.57-.61-1.39.11-.74-.52-.61-1.56-.98-1.44s-.93.47-1.16-.51c-2.16,1.51-4-3.63-7.85-.37-28.81-9.31-53.47-10.93-84-4.12.05-.47-.15-.94-.48-1.02-.51-.12-1.15.04-1.54-.09.1-.45-.21-.81-.68-.71-.67.17-.76-.38-.25-.99,33.53-8.02,68.5-5.82,100.12,7.58,1.19.5,2.35.7,3.42.51,1.52,1.27,2.97,2.03,4.29,2.89Z"/>
      <path class="cls-50" d="M24.08,436.35c-4.85-1.93-13.76-22.3-15.36-28.09l-3.3-11.96c-.65-2.37-2.25-4.68-.5-6.75.76,3.93,2.28,7.74,3.48,12.02,3.53,12.65,9.27,23.86,15.69,34.77Z"/>
      <path class="cls-31" d="M61.83,289.92c-11.75,2.62-22.92,7.15-33.5,13.48.33-.49-.07-.62-.48-.64-.37-.02-.64.16-1,.12l.73-1.35c.85.1,1.97-.32,2.01-1.34,1.38.15,2.26-1.29,3.36-1.84.33.25.38.1.67-.06s.83-.1.67-.61c.33.29.37.03.67-.06,1.4-.42,2.97-1.01,4.03-2.02.26,0,.38.13.67-.03s.83-.11.67-.63c.3.21.39.07.67-.04.33-.13.81-.12.67-.61.31.24.38.08.67-.05,1.54-.68,3.61-.69,4.68-2.02.21-.04.44.1.67-.03.25-.14.64-.03,1-.06.22-.02.49-.19.35-.59.22.07.45.06.67-.02.26-.1.65-.05,1-.06.22,0,.49-.2.34-.59.23.08.46.03.67-.03.69-.2,2.02.4,1.99-.67.24.04.44.04.67-.03s.69,0,1.02-.02c.21-.01.49-.21.34-.6.23.07.46.06.67-.03.84-.34,2.33.63,2.71-.72.22,0,.46-.03.68.04.4.13,1.04-.03,1.54.09.33.08.53.55.48,1.02Z"/>
      <path class="cls-50" d="M.88,347.68c-4.06-2.33,7.06-27.1,9.24-27.35-.04-.09-8.19,17.7-9.24,27.35Z"/>
      <path class="cls-50" d="M287.28,442.43c-8.03-3.21-8.13,1.18-10.63-.61,1.85-1.66,5.1-3.63,7.91-3.2,1.52.23,2.34,2.72,2.72,3.81Z"/>
      <path class="cls-50" d="M10.79,318.99c.52-2.56,2.54-5.22,4.7-6.71-.9,2.49-2.89,4.82-4.7,6.71Z"/>
      <path class="cls-50" d="M20.86,306.9c-1.34,2.02-3.38,3.99-5.37,5.37.81-2.24,2.95-4.76,5.37-5.37Z"/>
      <path class="cls-50" d="M27.58,301.53l-.73,1.35-3.3,1.34c1.12-1.08,2.03-2.91,4.03-2.69Z"/>
      <path class="cls-50" d="M274.63,442.52c-.19,1.26-1.56,1.55-2.69,1.34.37-.75,1.81-1.53,2.69-1.34Z"/>
      <path class="cls-50" d="M29.59,300.19c-.04,1.02-1.16,1.44-2.01,1.34.45-.83,1.11-1.44,2.01-1.34Z"/>
      <path class="cls-50" d="M59.13,288.78c-.38,1.35-1.87.38-2.71.72.17-1.28,1.78-.57,2.71-.72Z"/>
      <path class="cls-50" d="M38.99,295.6c-1.05,1.01-2.63,1.6-4.03,2.02.75-1.19,2.62-2.02,4.03-2.02Z"/>
      <path class="cls-50" d="M49.04,291.55c.14.4-.13.57-.35.59-.36.03-.74-.08-1,.06-.06-.33.12-.66.36-.74.35-.11.69,0,.98.09Z"/>
      <path class="cls-50" d="M167.15,117.65c-.59.3-.6-.38-.7-.73.46-.09.94.21.7.73Z"/>
      <path class="cls-50" d="M301.46,425.77c-.33-.55.41-.59.7-.82.24.65-.39.61-.7.82Z"/>
      <path class="cls-50" d="M25.56,437.82c-.51-.05-1.16.13-1.37-.34s-.39-.78-.11-1.12c.77.31.96,1.06,1.49,1.47Z"/>
      <path class="cls-50" d="M30.96,443.22c-2.03-1.42-3.93-3.45-5.4-5.41,1.99,1.57,3.97,3.31,5.4,5.41Z"/>
      <path class="cls-50" d="M347.23,544.56c-.43.14-.98-.19-.63-.67.51-.17.47.38.63.67Z"/>
      <path class="cls-50" d="M346.56,543.22c-.67.2-.67-.38-.75-.79.54-.3.61.4.75.79Z"/>
      <path class="cls-50" d="M276.65,441.83c-.52.47-.79.96-2.02.69.05-.41.13-.66.39-.67.85-.04,1.13-.38,1.64-.02Z"/>
      <path class="cls-50" d="M288.16,443.19c-.62.18-.74-.36-.88-.75.6-.21.69.3.88.75Z"/>
      <path class="cls-50" d="M271.95,443.86c.09.35-.13.62-.36.68-.29.07-.78.02-.98-.18-.12-.39.14-.5.35-.5h.99Z"/>
      <path class="cls-50" d="M289.49,445.2c-.59.02-1.55-.68-1.29-1.34.64.12,1.02.81,1.29,1.34Z"/>
      <path class="cls-50" d="M269.93,444.42c.12.36-.06.71-.35.79-.34.1-.76.05-1-.14-.1-.37.15-.52.37-.54.25-.02.74.09.98-.11Z"/>
      <path class="cls-50" d="M10.12,320.33c-.36-.79.26-1.16.67-1.34-.11.29.09.72,0,1-.11.35-.37.31-.68.34Z"/>
      <path class="cls-50" d="M20.86,306.9c.75-1.13,1.76-1.8,2.69-2.69-.72.72-1.46,2.38-2.69,2.69Z"/>
      <path class="cls-50" d="M267.25,445.71c-.15-.49.35-.48.67-.61.14.44-.18.98-.67.61Z"/>
      <path class="cls-50" d="M32.95,298.35c-1.1.55-1.98,1.99-3.36,1.84.02-.79.62-.49,1.16-.83.77-.72,1.33-1.67,2.2-1.01Z"/>
      <path class="cls-50" d="M314.32,486.15c-.5.13-.91-.25-.73-.76.61-.32.56.45.73.76Z"/>
      <path class="cls-50" d="M313.02,484.14c-.61.18-.8-.28-.68-.74.52-.32.51.42.68.74Z"/>
      <path class="cls-50" d="M302.27,466.02c-.68.2-.65-.35-.77-.76.55-.34.58.42.77.76Z"/>
      <path class="cls-50" d="M166.42,116.25c-.56.21-.5-.36-.68-.68.47-.13.98.15.68.68Z"/>
      <path class="cls-50" d="M33.62,298.29c-.15-.43.19-1.03.67-.61.16.51-.37.44-.67.61Z"/>
      <path class="cls-50" d="M151.86,463.99c.31.41-.13.61-.44.69-.42.11-.76,0-.99-.22-.09-.42.19-.46.4-.46.24,0,.83,0,1.03,0Z"/>
      <path class="cls-50" d="M266.57,445.77c.12.37-.08.69-.35.78-.38.12-.76-.04-1.05-.15-.28-.42.15-.5.41-.53.35-.04.71.11.99-.1Z"/>
      <path class="cls-50" d="M349.61,200.83c-.68.04-.43-.66-.46-1.01-.05-.51-.04-1.34.64-1.07.14.7.11,1.44-.17,2.08Z"/>
      <path class="cls-50" d="M158.32,95.43c-.55.11-.48-.36-.53-.72.51-.26.91.3.53.72Z"/>
      <path class="cls-50" d="M163.13,109.59c-.55.28-.68-.38-.66-.76.66-.26.58.35.66.76Z"/>
      <path class="cls-50" d="M39.66,295.57c-.13-.43.19-.96.67-.63.16.51-.38.46-.67.63Z"/>
      <path class="cls-50" d="M300.8,460.07c-.39.28-.56-.07-.66-.44-.08-.28.13-.71,0-1,.56.16.4.91.66,1.44Z"/>
      <path class="cls-50" d="M162.36,107.57c-.45-.5-1.05-1.39-1.22-2.1.88.12,1.83,1.24,1.22,2.1Z"/>
      <path class="cls-50" d="M41,294.91c-.14-.43.19-.98.67-.61.14.49-.34.49-.67.61Z"/>
      <path class="cls-50" d="M291.53,448.56c-.5.14-.99-.25-.75-.78.54-.34.56.45.75.78Z"/>
      <path class="cls-50" d="M59.81,288.82c-.21-.07-.45-.03-.68-.04v-.67c.47-.1.78.26.68.71Z"/>
      <path class="cls-50" d="M158.94,97.45c-.41.11-.45-.17-.46-.37,0-.24.09-.76-.11-.97.38-.12.69.08.79.35.16.41-.06.76-.23.99Z"/>
      <path class="cls-50" d="M290.2,446.55c-.44.14-1.01-.16-.66-.67.49-.15.52.36.66.67Z"/>
      <path class="cls-50" d="M55.75,289.53c.15.39-.13.59-.34.6-.33.02-.79-.05-1.02.02-.05-.34.15-.64.4-.7.36-.09.69,0,.97.08Z"/>
      <path class="cls-50" d="M53.71,290.17c.03,1.07-1.3.48-1.99.67,0-1.06,1.26-.79,1.99-.67Z"/>
      <path class="cls-50" d="M51.05,290.88c.15.39-.12.58-.34.59-.34.01-.74-.04-1,.06-.06-.33.11-.66.36-.74.34-.11.69-.01.97.09Z"/>
      <path class="cls-50" d="M47.03,292.23c-1.08,1.34-3.15,1.34-4.68,2.02.85-1.49,3.09-1.71,4.68-2.02Z"/>
      <path class="cls-28" d="M145.83,294.04c28.36,9.83,53.55,27.12,72.81,50.91,23.34,28.82,44.58,58.95,64.6,90.9-6.16,4.14-12.46,6.45-18.67,8.66.23-.07.15-.41-.17-.74-13.08,4.55-26.49,7.29-40.25,9.17-1.71.23-3.49,1.17-4.45-.41-1.63-1.69-.66-4.55-1.43-6.55.47.44.91-.06,1.4-.1.97,1.05,1.59-.89,2.14-.64,7.9,4.34,19.35.91,24.43-6.6,2.68-3.97,5.51-7.54,7.18-12.7,1.69-5.21,3.98-10.33,3.54-16.5-.03-.48.45-1.17.21-1.41-.18-.18-.32-.42-.71-.36-1.12-.14-.37-.78.2-1.78-12.91-18.27-25.98-36.19-40.29-53.43-25.37-30.58-61.4-50.56-101.45-54.48-15.69-1.53-30.6-.57-45.63,3.03-.42.1-1.33-1.12-1.8-.72-.28.23-.6,1.02-1.1,1.18-9.34,3.05-18.26,6.47-26.64,11.52-18.36,11.06-18.1,26.02-20.53,27.5-1.59.97-3.58-.66-5.16,1.66-.12.17,2.71,7.85,4.15,6.6-.68,7.84-.87,16.16.48,24.1-1.27.59-1.78.97-2.25,1.31-.78.56.14,2.52-.26,3.38-1.56,3.27,3.06,4.85,4.03,6.8,2.85,5.73,3.15,12.8,5.29,18.46-1.09-.65-2.85-.61-4.34-1.02,1.46,9.78,2.78,4.49-2.26,13.14,11.86,1.15,4.75.66,12.46,6.03.78-2.2.83-4.43,2.32-5.54,1.82-1.35,3.79-2.36,5.93-1.78-1.19,1.43.2,4.74.51,7.31-.63.63-1.57.47-2.12,1.33.75,1.75,1.93,2.7,2.96,3.52.04.52.35,1.2.93,1.55.05.03,2.99-1.46,8.48,7.73,2.52,4.22,5.7,7.98,9.41,10.82,3.96,3.04,8.46,5.13,13.37,6.06-.25.26-.63,1.57-.29,1.42,2.81-1.24,3.19,1.62,4.32,1.64l10.11.22c.98.02,2.01-.29,2.59.26.49.47.99,2.49.29,2.57-6.17.7-43.5-8.76-45.52-10.81-.34-.35-1.35.11-1.02.64-7.49-2.63-13.62-7.56-18.16-14.01-12.59-17.9-20.56-48-22.35-69.87-1.45-17.61,2.81-34.52,13.49-48.53,3.17-4.16,7.23-9.4,11.7-12.07,10.58-6.33,21.76-10.86,33.5-13.48,30.53-6.81,55.19-5.19,84,4.12Z"/>
      <path class="cls-30" d="M39.61,413.62c-2.14-.57-4.11.44-5.93,1.78-1.49,1.11-1.53,3.34-2.32,5.54-7.71-5.37-.6-4.89-12.46-6.03,5.03-8.65,3.72-3.36,2.26-13.14,1.49.42,3.25.37,4.34,1.02,4.26,2.57,4.4-1.93,9.05-2.43l1.2,6.42c.29,1.52,5.67,4.66,4.91,5.57l-1.05,1.27Z"/>
      <g>
        <path class="cls-41" d="M256.48,407.68c-5.66,7.19-14.87,3.74-24.08,10.56.09-.97-1.31-.95-2-1.21,2.28-2.59,3.58-8.06,3.48-11.08-.14-3.78-1.37-8.07-3.73-10.55-1.5-1.58-2.75-3.7-4.41-5.24-2.21-2.06-4.81-4.46-7.59-5.54-.63-1.16-2-2.42-3.32-2.59-2.68-3.16-6.21-6.57-10.14-8.68-3.3-1.77-4.62-5.36-5.67-8.78.09,3.12-5.12,14.64-6.21,16.84s-3.81,6.42-4.05,8.86c-.37,3.62-2.42,1.83-2.73,4.64l-.66,5.93c-.85,7.7.78,16.55,8,20.79l14.67,8.61c-.78.02-.61,1.23-.91,1.96-.16.38,1.52.94.5,1.64-5.85-5.33-13.27-9.06-21.69-9.82,9.46.85-16.44.16-7.88,1.03,1.46.84,2.57,1.04,1.25,1.46-4.56-2.34-7.49.81-14.29-1.7l9.6,16.45c-2.21,4.07-4.47-.91-10.17,1.07-2.06.71-5.01.33-5.95,2.37-.06.43-.63,1.24-1.44.69-.36-.07-.73-.26-.72-.67,2.73-5.9,2-12.95-1.89-18.21-3.47,2.15-5.57,5.2-7.94,7.97.57-2.48-3.92,6.45-1.65,5.31-1.52.09-1.58-.75-1.16-1.81l-8.1-3.48c.55-2.86,3.28-4.96,4.34-8.14-1.5.58-9.55,1.38-10.14,1.11-2.66-1.21-5.19-.35-7.67-.42-2.28-.06-4.87-1.19-7.39.89-.83.68-2.57.63-3.24,1.13-6.52,4.78-14.32,6.4-16.17,20.2-.13.98-1.04,1.73-1.88,2.08-.58-3.66-1.22-13.64,2.2-16.27,1.67-1.29,4.02-3.18,5.9-4.08,11.06-5.31,21.5-15.03,17.66-29.01-.07-.24-.92.02-1.1.09-.98.35-1.85-7.57-4.61-9.85-.88-.73-1.6-1.41-2.16-2.67-1.9-4.31-4.37-8.39-7.27-12.07-2.48-3.14-4.08-6.96-5.67-10.89-1.76,2.4-2.97,5.17-4.96,6.73-2.81,2.22-5.48,4.72-8.05,7.23-1.54,1.5-3.47,2.71-4.62,4.67l-5.3,4.36c-2.83,2.33-3.68,5.95-6.08,8.68-2.69,3.05-1.54,8.53-.87,13.99-1.81,1.8-1.79,3.35-2.73,2.36-3.31-3.5,3.38,6.36,6.92,8.17.45.23.5,1.08.35,1.29-1.01,1.48-5.74-1.14-8.52-.94-4.05.29-7.84.8-11.69,1.67-3.45.78-11.28-.49-10.49,1.01-.36.28-.96-.22-1.38-.02-1.03-.82-2.21-1.77-2.96-3.52.55-.87,1.49-.71,2.12-1.33-.31-2.56-1.7-5.88-.51-7.31l1.05-1.27c.76-.91-4.63-4.04-4.91-5.57l-1.2-6.42c-4.65.51-4.8,5-9.05,2.43-2.14-5.66-2.43-12.72-5.29-18.46-.97-1.95-5.59-3.53-4.03-6.8.41-.85-.52-2.82.26-3.38.48-.34.99-.72,2.25-1.31-1.34-7.94-1.16-16.26-.48-24.1-1.45,1.25-4.27-6.43-4.15-6.6,1.58-2.32,3.57-.69,5.16-1.66,2.43-1.48,2.17-16.44,20.53-27.5,8.37-5.04,17.3-8.47,26.64-11.52.5-.16.82-.95,1.1-1.18.48-.39,1.39.82,1.8.72,15.03-3.6,29.94-4.56,45.63-3.03,40.05,3.92,76.08,23.9,101.45,54.48,14.31,17.25,27.37,35.17,40.29,53.43-.56,1-1.31,1.65-.2,1.78Z"/>
        <g>
          <path class="cls-83" d="M154.56,357.51c-2.46-2.4-11.38.59-12.16-.53-.85-1.23,4.28-7.53,3.3-9.66l-3.94-8.64c15.36-.62,7.34,2.61,19.34-6.36,2.02,3.8.29,8.74,3.95,11.7,2.08,1.68,4.93,2.39,6.93,4.55-11.47,6.76-7.77,2.29-11.14,14.77-2.69-.81-3.97-3.56-6.28-5.82Z"/>
          <path class="cls-87" d="M92.69,350.32c-10.28.15-4.43-3.61-13.77,3.53-3.61-9.26,2.17-4.38-7.63-11.28.25-1.2,1.98-1.62,3.21-1.99,5.66-1.7,3.17-6.47,6.37-9.58,8.07,7.89,2.21,4.66,13,5.87-2.99,6.3-5.09,4.45-1.17,13.44Z"/>
          <path class="cls-20" d="M133.25,346.96c.12.84-2.29,1.58-2.96,1.99-.78-.06-1.66-1.67-2.97-1.61.6-1.82.85-3.23,1.29-5.37,1.7.95,3.09.72,4.73.88-.27,1.03-.3,2.59-.08,4.1Z"/>
          <path class="cls-17" d="M52.54,362.68c-.79.54-2.74-.11-3.31,1.25l-2.7-3.84c1.24-1.09,2.21-1.7,2.79-3.46.78,1.04,2.61.97,3.61,1.66-.15,1.07-.45,3.02-.38,4.39Z"/>
          <path class="cls-88" d="M164.9,407.88c-1.69-.59-2.6.27-3.73.12-.94-.13-2.12-1.33-1.97-2.04.17-.88.03-3.16,1.24-3.47,1.56-.4,2.82.84,4.29.63-.58,2.19.17,2.9.17,4.76Z"/>
        </g>
      </g>
      <g>
        <path class="cls-72" d="M146.5,434.47c-5.18,13.34,5.42,12.85.36,24.63,4.14-2.23.83-5.21,2.31-7.01,2.1-2.55,5.91-4.67,7.16-7.38,0,.42.36.6.72.67-3.1,3.04-6.03,6.25-7.1,10.89,4.8,1.63,10.06,1.89,14.55-.58s7.38-7.26,8.78-12.12c-1.81-.23-2.95-.22-4.1-.51-3.78.25-7.42-.18-10.69,1.64.94-2.03,3.89-1.65,5.95-2.37,5.69-1.98,7.96,3,10.17-1.07l2.63,1.87c2.01,3.5,5.94,5.57,9.43,7.47,8.09,4.38,17.75,2.22,24.55-4.46.94-.93,3.93,1.05,5.15,1.82,1.6,1.01,1.04,3.42,2.12,5.3.39-.21.66-.82,1.2-.71.95,1.58,2.74.64,4.45.41,13.77-1.88,27.18-4.62,40.25-9.17.32.33.4.67.17.74-10.44,3.73-21.24,6.77-32.35,8.26l-31.94,4.27c-18.11,2.42-35.73,4.62-54.24,5.4-35.2,1.48-70.87-3.48-102.4-14.56-.34-.53.67-1,1.02-.64,2.02,2.05,39.35,11.51,45.52,10.81.69-.08.2-2.1-.29-2.57-.58-.55-1.61-.24-2.59-.26l-10.11-.22c-1.13-.03-1.51-2.88-4.32-1.64-.35.15.04-1.16.29-1.42,4.34.82,8.63-.18,12.84-2.08,2.05-.93,6.79,2.35,5.88,6.9.19,1.41.73,1.57,1.07-.28-.83-1.48.77-6.21,2.93-5.25,9.5,4.25,19.56,3.59,27.13-2.9,1.57-1.35,3.66-2.6,5.41-3.68,1.33,9.64,5.27,14.63,14.01,14.9.19-3.39,1.97-2.22,2.27-2.87,2.19-4.81.8-11.3-3.31-14.51l-7.2-5.6c-.4-.96.83-1.67,1.39-2.07l8.1,3.48c-.42,1.05-.36,1.9,1.16,1.81-2.27,1.14,2.22-7.79,1.65-5.31Z"/>
        <path class="cls-34" d="M156.33,444.71c-1.25,2.71-5.06,4.84-7.16,7.38-1.48,1.8,1.83,4.78-2.31,7.01,5.06-11.77-5.54-11.29-.36-24.63,2.37-2.77,4.47-5.83,7.94-7.97,3.89,5.26,4.63,12.31,1.89,18.21Z"/>
        <path class="cls-80" d="M157.05,445.38c.82.55,1.39-.26,1.44-.69,3.27-1.82,6.91-1.4,10.69-1.64,1.15.3,2.28.29,4.1.51-1.4,4.86-4.13,9.57-8.78,12.12s-9.75,2.21-14.55.58c1.07-4.64,4-7.84,7.1-10.89Z"/>
        <g>
          <path class="cls-25" d="M216.15,394.18c-1.65,7.89-10.56,8.54-5.61,15.96,5.12-4.06,8.37-9.07,10.29-14.62.13,5.64-4.99,10.65-9.06,15.14-1.63,1.8-1.4,5.4.57,5.77,6.43-5.46,10.97-12.39,12.77-20.02,1.83-.82,3.35-.92,5.01-1.02,2.36,2.49,3.6,6.78,3.73,10.55.11,3.02-1.2,8.49-3.48,11.08-4.63,5.27-10.2,9.7-15.85,14.78.88,4.95,2.06,9.81,3.73,14.18.77,2-.2,4.86,1.43,6.55-.55-.12-.81.5-1.2.71-1.09-1.88-.52-4.29-2.12-5.3-1.21-.77-4.2-2.75-5.15-1.82-6.8,6.69-16.46,8.84-24.55,4.46,1.52.51,1.81-1.08,2.96-1.7,4.38-2.35,8.81-4.25,11.7-7.99-1.32-1.23-2.72-2.7-4.25-1.58-2.46,1.79-4.1,4.05-7.13,4.39,2.79-3.98,3.61-1.47,4.92-5.13.1-.28.94.12,1.13.02,1.49-.78-2.56-2.96-3.15-2.6-3.32,2.02-5.77,4.96-9,4.42,1.01-.47,2.43-.85,3.17-1.96.61-.91,2.64-.38,3.05-2.99.12-.77-.73-1.41-1.63-1.81-2.5-1.11-6.67,5.38-10.27,3.61,2.61-1.44,6.35-1.76,7.58-4.47-.32-1.89-4.34-1.99-6.02-.37-.13-1.12,1.38-1.41.79-2.37-.31-.49-1.54-.24-1.92-1.5,1.05-.38,1.75.56,2.6.34.13.31.62,1.59,1.21,1.37.62-.24.19-1.12-.1-1.21-.37-.12-.71-.3-1.1-.16-.23-1.17-2.01-1.11-1.92-2.41,1.32-.42.21-.63-1.25-1.46-8.56-.87,17.35-.18,7.88-1.03,8.42.76,15.84,4.49,21.69,9.82,5.63,7.25,2.59,13.04,9.28,12.69-3.34-7.82-.52-15.24-8.87-16.28l-14.67-8.61c-7.22-4.24-8.86-13.09-8-20.79l2.54-.71c2.27,1.46,3.1,4.22,4.99,6,2.28,2.15,5,4.15,7.8,5.66,2.18-.31,3.74,3.4,7.55,3.6,1.56.08,1.61-3.99.22-4.58-4.2-1.76-13.2-6.8-15.7-9.76l-.79-2.72c18.01,17.21,18.35,6.88,13.05,4.12-4.88-2.54-9.8-5.8-11.86-10.34,3.55,4.18,7.83,7.79,13.12,10.05.57-1.83-.06-2.69.03-3.98,1.03-.08.9,5.19,2.19,5.13,2.38-.11,6.22-8.77,7.64-9.13Z"/>
          <path class="cls-49" d="M246.25,438.65c-.38.4-.59.08-.84-.17-.27-.27-.24-.86-.51-1.32-3.24.77-6.73,1.85-10.59,1.25-.84-.42-.62-1.32-1.03-1.29-.86.07-1.63.15-2.19.38-.97.39-1.39-1.16-1.56-1.82-.63-2.6,6.07-2.06,4.7-2.73,5.31.75,10.22.06,14.92-2.25,1.16-.57,2.41-.69,1.51-2.09-2.21-3.43-3.92,1.61-14.23-.82.81-1.75,2.28-3.18,3.76-4.76l3.96-4.21c-2.36.77-3.66,2.98-5.96,4.95-.83-.52.04-1.71-.94-2.14-.67,1.08.27,1.57.18,2.31-.07.58-.54,1.5-1.53,1.61.09-2.11.65-3.78.17-5.93-.73,1.31-.41,3.12-1.83,4.06-.45.3-1.35-.63-1.24-.99.13-.45.42-.85,1.01-1.92-.77-.6-1.77-.37-2.33-1.05.01-.62.81-.84.71-1.5,9.21-6.82,18.42-3.37,24.08-10.56.39-.06.53.18.71.36.24.24-.25.93-.21,1.41.44,6.17-1.85,11.3-3.54,16.5-1.67,5.16-4.5,8.72-7.18,12.7Z"/>
          <path class="cls-61" d="M236.42,427.8c-.45.98-2.12,1.34-2.68,2.74-.39.97-.52,2.31.48,2.42,1.37.67-5.34.14-4.7,2.73.16.66.59,2.21,1.56,1.82.57-.23,1.34-.31,2.19-.38.41-.03.19.87,1.03,1.29,3.86.59,7.35-.49,10.59-1.25.27.46.24,1.05.51,1.32.25.25.46.57.84.17-5.08,7.52-16.53,10.95-24.43,6.6-.56-.25-1.17,1.68-2.14.64.61-.89.72-2.01.64-3.38-.53-9.51,4.38-17.81,11.37-22.77.56.68,1.56.45,2.33,1.05-.59,1.08-.88,1.48-1.01,1.92-.11.37.8,1.29,1.24.99,1.42-.94,1.1-2.76,1.83-4.06.47,2.15-.08,3.82-.17,5.93.98-.12,1.46-1.03,1.53-1.61.09-.75-.85-1.23-.18-2.31.98.43.11,1.62.94,2.14,2.3-1.98,3.59-4.18,5.96-4.95l-3.96,4.21c-1.48,1.58-2.96,3.01-3.76,4.76Z"/>
          <path class="cls-65" d="M232.4,418.24c.1.67-.69.88-.71,1.5-7,4.96-11.9,13.26-11.37,22.77.08,1.37-.03,2.48-.64,3.38-.49.03-.93.54-1.4.1-1.68-4.37-2.86-9.23-3.73-14.18,5.66-5.07,11.22-9.51,15.85-14.78.69.26,2.09.24,2,1.21Z"/>
          <path class="cls-21" d="M179.3,426.51c-.09,1.3,1.69,1.24,1.92,2.41-.85.21-1.55-.72-2.6-.34.39,1.25,1.62,1,1.92,1.5.59.96-.91,1.25-.79,2.37,1.69-1.62,5.71-1.51,6.02.37-1.23,2.71-4.97,3.03-7.58,4.47,3.59,1.77,7.77-4.72,10.27-3.61.9.4,1.75,1.04,1.63,1.81-.41,2.6-2.44,2.07-3.05,2.99-.74,1.12-2.16,1.5-3.17,1.96-2.31-.39-5.49.91-6.63,2.7l-2.63-1.87-9.6-16.45c6.8,2.51,9.73-.64,14.29,1.7Z"/>
          <path class="cls-40" d="M186.68,450.59c-3.49-1.89-7.42-3.96-9.43-7.47,1.14-1.79,4.32-3.09,6.63-2.7,3.23.54,5.67-2.39,9-4.42.59-.36,4.64,1.82,3.15,2.6-.19.1-1.03-.3-1.13-.02-1.31,3.65-2.13,1.15-4.92,5.13,3.03-.34,4.67-2.6,7.13-4.39,1.52-1.11,2.93.35,4.25,1.58-2.89,3.74-7.32,5.64-11.7,7.99-1.15.62-1.44,2.21-2.96,1.7Z"/>
          <path class="cls-85" d="M214.83,382.03c-3.1,4.08-2.5,8.73-8.42,13.78-2.59-7.19.24-6.49,3.11-13.41.17-.42-.09-.9-.35-.98-1.94-.6-.26,4.41-4.42,7.33-2.77-6.78,1.58-9.57-.42-12.12-.5,1.62.26,2.83-1.17,4.38l-3.53-5.02c-.8,3.04,6.46,5.89,2.49,10.81,4.17,5.22.31,2.68,3.1,7.68-5.31-2.28-9.47-6.62-11.48-12.21-.17-.46-.61-.86-.93-.86,1.09-2.21,6.31-13.73,6.21-16.84,1.04,3.42,2.36,7.01,5.67,8.78,3.92,2.11,7.46,5.51,10.14,8.68Z"/>
          <path class="cls-55" d="M214.83,382.03c1.32.16,2.69,1.42,3.32,2.59l-2,9.57c-1.43.35-5.26,9.02-7.64,9.13-1.29.06-1.16-5.21-2.19-5.13-.1,1.3.54,2.15-.03,3.98-5.29-2.27-9.57-5.87-13.12-10.05-.34-.76-.62-2.55-1.82-2.48-.77.05-1.65,1.33-2.58.63.25-2.44,2.95-6.63,4.05-8.86.32,0,.77.4.93.86,2.01,5.59,6.18,9.93,11.48,12.21-2.79-4.99,1.06-2.46-3.1-7.68,3.97-4.91-3.3-7.76-2.49-10.81l3.53,5.02c1.43-1.55.67-2.76,1.17-4.38,2,2.56-2.35,5.34.42,12.12,4.16-2.92,2.47-7.93,4.42-7.33.26.08.52.56.35.98-2.86,6.92-5.7,6.22-3.11,13.41,5.91-5.05,5.32-9.7,8.42-13.78Z"/>
          <path class="cls-3" d="M225.73,390.16c1.65,1.55,2.9,3.66,4.41,5.24-1.67.09-3.18.2-5.01,1.02-1.8,7.63-6.35,14.56-12.77,20.02-1.98-.37-2.21-3.97-.57-5.77,4.07-4.5,9.19-9.5,9.06-15.14-.04-1.9,0-4.26.44-6.23.9-.08,1.78.24,2.26-.49.39,1.09,1.23,1.57,2.2,1.35Z"/>
          <path class="cls-64" d="M191.97,398.33l.79,2.72c2.5,2.96,11.51,8,15.7,9.76,1.4.59,1.34,4.66-.22,4.58-3.81-.2-5.38-3.91-7.55-3.6-2.8-1.51-5.52-3.51-7.8-5.66-1.89-1.78-2.71-4.54-4.99-6l-2.54.71.66-5.93c2.5-.31,5.15.69,5.95,3.42Z"/>
          <path class="cls-39" d="M225.73,390.16c-.97.21-1.8-.27-2.2-1.35-.48.74-1.36.41-2.26.49-.44,1.97-.48,4.33-.44,6.23-1.92,5.55-5.17,10.56-10.29,14.62-4.96-7.42,3.96-8.07,5.61-15.96l2-9.57c2.77,1.08,5.38,3.48,7.59,5.54Z"/>
          <path class="cls-8" d="M193.16,392.11c2.06,4.54,6.98,7.8,11.86,10.34,5.3,2.76,4.96,13.09-13.05-4.12-.79-2.73-3.45-3.73-5.95-3.42.31-2.81,2.37-1.02,2.73-4.64.93.7,1.81-.58,2.58-.63,1.2-.08,1.48,1.72,1.82,2.48Z"/>
          <path class="cls-51" d="M207.62,433.83c1.02-.69-.66-1.25-.5-1.64.3-.73.14-1.94.91-1.96,8.35,1.04,5.53,8.47,8.87,16.28-6.69.35-3.65-5.44-9.28-12.69Z"/>
          <path class="cls-47" d="M181.22,428.91c.39-.14.73.04,1.1.16.29.09.72.97.1,1.21s-1.08-1.06-1.21-1.37Z"/>
          <path class="cls-46" d="M234.23,432.96c-1.01-.11-.87-1.45-.48-2.42.56-1.4,2.23-1.76,2.68-2.74,10.31,2.43,12.02-2.61,14.23.82.9,1.4-.35,1.52-1.51,2.09-4.7,2.31-9.61,3-14.92,2.25Z"/>
        </g>
        <g>
          <path class="cls-27" d="M42.34,425.8c1.18-.93,2.72.9,3.93.58,2.56-.69,4.71-.29,6.81-.65.09.55.35,1.33.72,1.76.49.57,1.34-.04,1.96.54-1.44.89-.9,1.67-.54,2.09,1.37,1.6,1.92-2.05,5.58,1.39-1.06,1.65-1.72,2.69-3.08,3.46,2.79.07,5.16-2.49,7.74-1.27,1.04.49-.65,1.9-1.2,2.28-.71.5-1.62-.18-2.11.12-.66.4-1.27,1.12-1.76,1.59,3.86,1.06,7.95-5.12,10.98,0-1.5,2.09-11.37,3.04-13.55,4.53.91.38.4.94.66,1.97.1.38,1.28.19,1.32.68.03.37.08.7-.03,1.01-3.71-2.85-6.89-6.61-9.41-10.82-5.49-9.2-8.43-7.7-8.48-7.73-.57-.35-.88-1.03-.93-1.55.42-.2,1.02.31,1.38.02Z"/>
          <path class="cls-48" d="M122.13,427.04c-.25.74.61.37,1.47,1.07-2.8,1.12-4.98,3.22-6.09,6.27,2.87-1.21,5.35-2.67,7.71-4.01,1.2.92,2.52,1.45.52,1.22l-6.25,3.11c4.54,1.91,7.6,3.13,11.13,1.42.83-.4,2.59,1.04,3.57.45l7.2,5.6c4.12,3.21,5.5,9.7,3.31,14.51-.29.65-2.08-.52-2.27,2.87-8.75-.27-12.68-5.26-14.01-14.9-1.76,1.09-3.84,2.34-5.41,3.68-.03-.7-.03-1.89.27-2.45,3.76-2.3-5.26,0-9.22-2.71-.93-.64-3.61-.19-3.76-1.99-.09-1.05,3-2.73,3.52-1.82.74,1.31.93.78,2.42.25,1.92.81,3.44,2.22,5.39,1.32l-7.37-2.92c.92-1.84,2.88-1.23,2.84-3.2-1.55-.31-1.87,1.52-3.65.86,1.17-2.02,1.25-4.37,2.73-5.83.94.34,1.44-.74,2.7-1.05-.38-.63-1.48-.56-1.99-.08-.27.26-.87.58-.71,1.12-1.4-.71-1.68,1.63-3.33,1.23-.41-.11.31-1.6-.3-1.51-.44.06-1.16.46-1.06-.51.67-.49,2.41-.44,3.24-1.13,2.52-2.08,5.11-.95,7.39-.89Z"/>
          <path class="cls-11" d="M135.59,434.49c-.56.4-1.79,1.11-1.39,2.07-.98.59-2.74-.85-3.57-.45-3.53,1.71-6.59.49-11.13-1.42l6.25-3.11c1.99.23.68-.3-.52-1.22-2.37,1.34-4.84,2.8-7.71,4.01,1.11-3.05,3.29-5.15,6.09-6.27-.86-.7-1.72-.32-1.47-1.07,2.47.07,5.01-.79,7.67.42.59.27,8.64-.54,10.14-1.11-1.06,3.19-3.79,5.28-4.34,8.14Z"/>
          <path class="cls-52" d="M101.54,430.97c-1.13-2.5,3.91-2.68,2.85-5.56-.4-1.09-3.34-1.8-2.57-3.46.72-1.56,3.28-2.15,3.51-4.7l-7.01,4.25c-.21-1.35-1.34-2.03-1.92-3.37,5.52-4.32,11.57-7.76,14.91-14.16-5.83,5.04-11.39,9.55-17.78,12.91-3.23-7.72,8.57-6.72,14.71-17.31.82-1.41,3.31-2.45,3.27-4.58,0-.47,1.61-.29,1.76-.78.19-.59.21-1.3.21-2,2.76,2.28,3.63,10.19,4.61,9.85.18-.06,1.04-.33,1.1-.09,3.84,13.98-6.61,23.7-17.66,29.01Z"/>
          <path class="cls-91" d="M104.06,377.47c2.91,3.67,5.38,7.76,7.27,12.07-.68.88-2.27-.06-2.85.4-1.62,1.3-3.83,3.76-4.48,5.7-2.92,2.31-5.88,4.52-9.48,6.35-2.26-6.67,4.46-6.57,6.79-11.83l-6.33,4.49c-.4-2.83.12-5.1,1.46-7.39.21-.36-1.13-.48-1.19-.16-.05.29-.02,1.19-1.51.53.62,3,1.24,5.68-.83,7.94-1.79-1.68-3.19-3.62-4.24-5.5-3.21-5.76-1.53-5.67-3.3-9.52,2.58-2.51,5.24-5.01,8.05-7.23,1.13.09.48,1.72.54,2.94.03,1.82,1.35,1.83,1.74-.37,1.7,1.4,1.44,3.16.62,5.29-.42,1.09.96,2.81.13,4.03,4.39-1.53,6.55-9.02,7.6-7.73Z"/>
          <path class="cls-84" d="M111.33,389.53c.56,1.27,1.28,1.95,2.16,2.67,0,.7-.02,1.41-.21,2-.16.49-1.77.31-1.76.78.03,2.13-2.45,3.17-3.27,4.58-5.26,4.84-7.88,6.31-14.38,10.18-2.59-7.63,7.94-7.45,10.13-14.12.64-1.95,2.85-4.4,4.48-5.7.58-.47,2.17.47,2.85-.4Z"/>
          <path class="cls-22" d="M88.68,390.06c-3.34,1.88,7.41,3.95,3.7,13.45-3.94-3.08-7.06-6.99-8.97-11.37-.49-1.09-1.32-8.76-2.64-6.93,1.15-1.96,3.08-3.17,4.62-4.67,1.77,3.85.09,3.76,3.3,9.52Z"/>
          <path class="cls-10" d="M104.06,377.47c-1.05-1.29-3.22,6.21-7.6,7.73.84-1.22-.55-2.94-.13-4.03.82-2.13,1.08-3.89-.62-5.29-.39,2.2-1.71,2.19-1.74.37-.06-1.22.59-2.86-.54-2.94,1.98-1.56,3.2-4.33,4.96-6.73,1.6,3.93,3.19,7.75,5.67,10.89Z"/>
          <g>
            <path class="cls-56" d="M104,395.64c-2.2,6.67-12.73,6.49-10.13,14.12,6.5-3.87,9.12-5.34,14.38-10.18-6.14,10.59-17.94,9.6-14.71,17.31,6.39-3.35,11.95-7.87,17.78-12.91-3.34,6.4-9.39,9.84-14.91,14.16.58,1.34,1.71,2.02,1.92,3.37l7.01-4.25c-.23,2.55-2.79,3.13-3.51,4.7-.77,1.66,2.17,2.37,2.57,3.46,1.06,2.88-3.98,3.05-2.85,5.56-1.88.9-4.23,2.8-5.9,4.08-3.42,2.64-2.78,12.61-2.2,16.27.84-.35,1.75-1.1,1.88-2.08,1.86-13.79,9.66-15.41,16.17-20.2-.1.96.62.57,1.06.51.61-.09-.11,1.41.3,1.51,1.66.4,1.94-1.94,3.33-1.23-1.48,1.46-1.56,3.81-2.73,5.83,1.78.65,2.1-1.17,3.65-.86.03,1.97-1.92,1.37-2.84,3.2l7.37,2.92c-1.96.9-3.48-.51-5.39-1.32-1.49.54-1.68,1.06-2.42-.25-.52-.91-3.61.77-3.52,1.82.15,1.8,2.83,1.35,3.76,1.99,3.96,2.71,12.98.41,9.22,2.71-.3.55-.3,1.75-.27,2.45-7.57,6.49-17.63,7.15-27.13,2.9-2.16-.97-3.76,3.77-2.93,5.25-.34,1.84-.88,1.69-1.07.28.91-4.55-3.83-7.82-5.88-6.9-4.21,1.9-8.5,2.9-12.84,2.08-4.91-.93-9.41-3.01-13.37-6.06.11-.31.06-.65.03-1.01-.04-.49-1.22-.3-1.32-.68-.26-1.03.25-1.59-.66-1.97,2.18-1.49,12.05-2.44,13.55-4.53-3.03-5.12-7.12,1.05-10.98,0,.49-.46,1.1-1.18,1.76-1.59.49-.3,1.4.38,2.11-.12.55-.39,2.23-1.8,1.2-2.28-2.58-1.21-4.95,1.34-7.74,1.27,1.36-.76,2.02-1.81,3.08-3.46-3.66-3.44-4.2.21-5.58-1.39-.37-.42-.9-1.21.54-2.09-.61-.59-1.47.03-1.96-.54-.37-.43-.63-1.21-.72-1.76,9.39-1.6,13.41-3.36,22.22,1.98-5.96.81,1.35,4.34,1.55,9.45.52-.46.46-1.2.78-1.52.18-.18.47.1.71.43.14.2-.26.55.69,1.53.76-1.21.22-1.86.91-2.06,1.94-.55,3.03-1.72,3.99-.38,8.29,13.59.44,13.56,7.89,15.91.43-17.95,1.21-13.86-6.93-20.8-11.55-9.85-19.24-15.71-15.53-32.02,2.4-2.73,3.25-6.35,6.08-8.68.8-.13.32.58.03,1.29.37.58.57.99.81,1.09.32.13.86-.07.94-.38.11-.4-.14-.87.49-2.48.83,8.49,5.82,16.18,13.39,21.04,1.17-.5.45-2.24.25-3.34-.15-.85,4.13.05-3.41-5.53-.95-.7-1.38-3.11-3.09-3.25.42.31-3.6-6.82-1.46-5.87,1.92,4.38,5.03,8.29,8.97,11.37,3.71-9.49-7.04-11.57-3.7-13.45,1.05,1.88,2.45,3.82,4.24,5.5,2.06-2.26,1.45-4.94.83-7.94,1.49.66,1.46-.24,1.51-.53.06-.33,1.4-.21,1.19.16-1.34,2.29-1.86,4.56-1.46,7.39l6.33-4.49c-2.33,5.26-9.05,5.16-6.79,11.83,3.6-1.83,6.56-4.04,9.48-6.35Z"/>
            <path class="cls-57" d="M83.94,435.17c-2.11-3.46-5.38-5.49-8.63-7.46-8.81-5.34-12.83-3.58-22.22-1.98-2.1.36-4.26-.04-6.81.65-1.21.33-2.75-1.5-3.93-.58-.79-1.5,7.04-.23,10.49-1.01,3.86-.87,7.64-1.38,11.69-1.67,2.78-.2,7.51,2.42,8.52.94.15-.21.1-1.06-.35-1.29-3.53-1.8-10.22-11.67-6.92-8.17.94.99.92-.56,2.73-2.36-.67-5.46-1.82-10.94.87-13.99-3.71,16.31,3.98,22.18,15.53,32.02,8.14,6.94,7.36,2.85,6.93,20.8-7.45-2.35.4-2.32-7.89-15.91Z"/>
            <path class="cls-5" d="M83.4,392.14c-2.14-.94,1.88,6.18,1.46,5.87,1.72.14,2.15,2.55,3.09,3.25,7.54,5.58,3.26,4.68,3.41,5.53.2,1.1.92,2.84-.25,3.34-7.56-4.86-12.56-12.55-13.39-21.04-.62,1.61-.38,2.08-.49,2.48-.09.31-.62.52-.94.38-.24-.1-.44-.51-.81-1.09.29-.71.78-1.42-.03-1.29l5.3-4.36c1.33-1.83,2.15,5.84,2.64,6.93Z"/>
            <path class="cls-77" d="M82.17,403.71c3.22,3.65,7.33,6.06,9.84,9.64.67.96-.52,3.2-1.44,3.41-3.01.68-19.87-16.61-13.74-21.94,1.67,2.27,2.28,3.98,3.15,6.31.22.59,1.17.3,1.46.78.34.57.25,1.24.73,1.8Z"/>
            <path class="cls-12" d="M75.31,427.71c3.25,1.97,6.52,4,8.63,7.46-.96-1.35-2.05-.17-3.99.38-.69.2-.15.84-.91,2.06-.95-.98-.55-1.33-.69-1.53-.24-.33-.53-.61-.71-.43-.32.32-.26,1.06-.78,1.52-.21-5.12-7.51-8.64-1.55-9.45Z"/>
          </g>
          <path class="cls-75" d="M116.19,429.84c-.16-.55.44-.87.71-1.12.51-.48,1.61-.55,1.99.08-1.27.3-1.77,1.38-2.7,1.05Z"/>
        </g>
      </g>
    </g>
  </g>
  <path class="cls-18" d="M307.44,347.41c.65,0,1.54-.1,2.05-.55.36-.31.47-.7-.19-.7s-1.54.1-2.05.55c-.36.31-.47.7.19.7h0Z"/>
</svg>